<?xml version="1.0" encoding="iso-8859-1"?>
<!-- Generator: Adobe Illustrator 19.1.0, SVG Export Plug-In . SVG Version: 6.00 Build 0)  -->
<svg version="1.1" id="Capa_1" xmlns="http://www.w3.org/2000/svg" xmlns:xlink="http://www.w3.org/1999/xlink" x="0px" y="0px"
	 viewBox="0 0 489.17 489.17" style="enable-background:new 0 0 489.17 489.17;" xml:space="preserve">
<g>
	<g>
		<path d="M257.257,281.27l19.4,57.2l-27.1-2.1l-19.1,23.5l4.2,4.2l46.3,46.3l33.1-33.1l13.1-13.1l5.3-5.3l20-20
			c-5.5-9.2-13.6-16.7-23.4-21.6l-61.4-30.3C264.157,285.17,260.757,283.27,257.257,281.27z"/>
		<path d="M130.157,336.37l-27.1,2.1l19.8-57.2l-12.3,6.3l-59.9,29.6c-16,7.9-27.4,22.9-30.6,40.5l-9.8,54.2c-0.7,4,2.3,7.7,6.4,7.7
			h71.8l60.3-60.3L130.157,336.37z"/>
		<path d="M340.457,226.87c7,3.4,14.5,5.1,22.2,6.4c6,0.9,6.2,1.2,6.2,7.4c0,2.8,0,5.6,0.1,8.5c0,3.6,1.8,5.6,5.4,5.7
			c4.1,0.1,8.3,0.1,12.5,0c3.4-0.1,5.1-1.9,5.2-5.4c0-3.9,0.2-7.7,0-11.6c-0.2-3.9,1.5-5.9,5.3-6.9c8.7-2.4,16.1-7,21.8-14
			c15.8-19.2,9.7-47.3-12.6-59.7c-7-3.9-14.5-6.8-21.9-9.9c-4.3-1.8-8.4-3.9-12-6.7c-7.1-5.7-5.8-14.9,2.6-18.6
			c2.3-1,4.8-1.4,7.4-1.5c9.7-0.5,18.9,1.2,27.6,5.5c4.4,2.1,5.8,1.4,7.3-3.1c1.6-4.8,2.9-9.7,4.3-14.5c0.9-3.3-0.2-5.4-3.3-6.8
			c-5.6-2.5-11.4-4.3-17.4-5.2c-7.9-1.2-7.9-1.3-7.9-9.2c0-11.2,0-11.2-11.3-11.2c-1.6,0-3.3,0-4.9,0c-5.2,0.2-6.1,1.1-6.3,6.3
			c-0.1,2.4,0,4.7,0,7.1c0,7-0.1,6.9-6.8,9.4c-16.3,5.9-26.3,17-27.4,34.7c-1,15.7,7.2,26.3,20.1,34c7.9,4.8,16.7,7.6,25.1,11.3
			c3.3,1.4,6.4,3.1,9.2,5.4c8.1,6.7,6.6,17.8-3,22c-5.1,2.2-10.6,2.8-16.1,2.1c-8.6-1.1-16.8-3.3-24.6-7.4c-4.5-2.4-5.9-1.7-7.4,3.2
			c-1.3,4.2-2.5,8.5-3.7,12.8C334.357,222.87,334.957,224.27,340.457,226.87z"/>
		<path d="M141.057,249.37v18.1l25.7,75c6.6-4.4,14.4-6.8,22.5-6.8c8.5,0,16.7,2.6,23.5,7.5l25.8-75.3l-0.1-1.3l0,0v-17.6
			c0,0,55.6,1.7,82-25.2c0,0-38.4-10.9-31.5-80.8s-8.6-131.2-64.8-126c0,0-24.3-29.3-72.8-10.9c-16.6,6.3-61.3,22.3-59,119.1
			s-34.4,97.4-34.4,97.4S76.857,249.87,141.057,249.37z"/>
		<path d="M470.557,273.87c-0.3,0-0.7,0-1,0c-21.7,1-43.4,2-65.1,3.1c-3.4,0.2-6.7,0.3-8.6,4.4c-1.9,4,0.3,6.3,2.6,8.6
			c6.7,6.7,13.2,13.4,20,20l-7.4,7.4l-60,60l-5.3,5.3l-13.1,13.1l-51.7,51.7l-3-3l-61.8-61.8l-13.2-13.2l-3.6-3.6
			c-2.8-2.8-6.5-4.2-10.1-4.2c-3.7,0-7.3,1.4-10.1,4.2l-3.5,3.6l-75,75c-5.6,5.6-5.6,14.7,0,20.2l3.6,3.6c2.8,2.8,6.5,4.2,10.1,4.2
			c3.7,0,7.3-1.4,10.1-4.2l64.8-64.8l3,3l61.8,61.8l13.1,13.1l3.6,3.6c2.8,2.8,6.5,4.2,10.1,4.2c3.7,0,7.3-1.4,10.1-4.2l3.6-3.6
			l61.8-61.8l13.1-13.1l5.3-5.3l60-60l7.3-7.3l19.6,19.4c1.8,1.8,3.6,3.8,6.2,3.8c1,0,2-0.3,3.2-0.9c3.9-2.1,4.8-5.5,4.9-9.4
			c0.9-21.2,2-42.3,3-63.5C479.457,276.77,476.757,273.87,470.557,273.87z"/>
	</g>
</g>
<g>
</g>
<g>
</g>
<g>
</g>
<g>
</g>
<g>
</g>
<g>
</g>
<g>
</g>
<g>
</g>
<g>
</g>
<g>
</g>
<g>
</g>
<g>
</g>
<g>
</g>
<g>
</g>
<g>
</g>
</svg>
