<?xml version="1.0" encoding="iso-8859-1"?>
<!-- Generator: Adobe Illustrator 19.1.0, SVG Export Plug-In . SVG Version: 6.00 Build 0)  -->
<svg version="1.1" id="Capa_1" xmlns="http://www.w3.org/2000/svg" xmlns:xlink="http://www.w3.org/1999/xlink" x="0px" y="0px"
	 viewBox="0 0 485.481 485.481" style="enable-background:new 0 0 485.481 485.481;" xml:space="preserve">
<g>
	<g>
		<path d="M313.841,144.516l38.5,24.4c3.3,2.1,7.4-0.5,7.4-4.7v-15.3h23.6c4.9,0,8.9,4,8.9,8.9v61.9c0,5.1,4.1,9.2,9.2,9.2
			s9.2-4.1,9.2-9.2v-61.9c0-15-12.2-27.2-27.2-27.2h-23.6v-15.3c0-4.2-4.1-6.8-7.4-4.7l-38.5,24.4
			C310.541,137.216,310.541,142.416,313.841,144.516z"/>
		<path d="M77.641,227.316c2.1,3.3,7.3,3.3,9.4,0l24.4-38.5c2.1-3.3-0.5-7.4-4.7-7.4h-15.3v-23.6c0-4.9,4-8.9,8.9-8.9h47.6
			c5.1,0,9.2-4.1,9.2-9.2c0-5.1-4.1-9.2-9.2-9.2h-47.6c-15,0-27.2,12.2-27.2,27.2v23.6h-15.2c-4.2,0-6.8,4.1-4.7,7.4L77.641,227.316
			z"/>
		<path d="M293.041,389.816l-38.5-24.4c-3.3-2.1-7.4,0.5-7.4,4.7v15.3h-49.1c-5.1,0-9.2,4.1-9.2,9.2s4.1,9.2,9.2,9.2h49.1v15.3
			c0,4.2,4.1,6.8,7.4,4.7l38.5-24.4C296.341,397.116,296.341,391.916,293.041,389.816z"/>
		<path d="M260.141,156.616L260.141,156.616v-8.1c0,0,25.7,0.8,37.9-11.7c0,0-17.8-5-14.6-37.4c3.2-32.3-4-60.7-30-58.3
			c0,0-11.3-13.6-33.7-5c-7.7,2.9-28.4,10.3-27.3,55.2c1.1,44.8-15.9,45.1-15.9,45.1s8.8,12.7,38.5,12.5v8.4l22.6,66l22.5-65.8
			V156.616z"/>
		<path d="M320.741,224.016l-4.5-25.1c-1.5-8.1-6.7-15.1-14.1-18.8l-28.4-14c-1.6-0.8-3.2-1.7-4.8-2.6l9,26.5l-12.5-1l-27.7,34
			l-27.7-34l-12.5,1l9.1-26.5l-5.7,2.9l-27.7,13.7c-7.4,3.7-12.7,10.6-14.1,18.8l-4.5,25.1c-0.3,1.8,1.1,3.5,3,3.5h79.1h2.1h79.1
			C319.641,227.516,321.141,225.816,320.741,224.016z"/>
		<path d="M424.741,381.316L424.741,381.316v-8.1c0,0,25.7,0.8,37.9-11.7c0,0-17.8-5-14.6-37.4c3.2-32.3-4-60.7-30-58.3
			c0,0-11.3-13.6-33.7-5c-7.7,2.9-28.4,10.3-27.3,55.2c1.1,44.8-15.9,45.1-15.9,45.1s8.8,12.7,38.5,12.5v8.4l22.6,66l22.5-65.8
			V381.316z"/>
		<path d="M485.441,448.616l-4.5-25.1c-1.5-8.1-6.7-15.1-14.1-18.8l-28.4-14c-1.6-0.8-3.2-1.7-4.8-2.6l9,26.5l-12.5-1l-27.7,34
			l-27.8-33.9l-12.5,1l9.1-26.5l-5.7,2.9l-27.7,13.7c-7.4,3.7-12.7,10.6-14.1,18.8l-4.5,25.1c-0.3,1.8,1.1,3.5,3,3.5h79.1h2.1h79.1
			C484.341,452.216,485.741,450.516,485.441,448.616z"/>
		<path d="M105.541,381.316L105.541,381.316v-8.1c0,0,25.7,0.8,37.9-11.7c0,0-17.8-5-14.6-37.4c3.2-32.3-4-60.7-30-58.3
			c0,0-11.3-13.6-33.7-5c-7.7,2.9-28.4,10.3-27.3,55.2c1.1,44.8-15.9,45.1-15.9,45.1s8.8,12.7,38.5,12.5v8.4l22.6,66l22.5-65.8
			V381.316z"/>
		<path d="M161.641,423.616c-1.5-8.1-6.7-15.1-14.1-18.8l-28.4-14c-1.6-0.8-3.2-1.7-4.8-2.6l9,26.5l-12.5-1l-27.7,34l-27.7-34
			l-12.5,1l9.1-26.5l-5.7,2.9l-27.7,13.7c-7.4,3.7-12.7,10.6-14.1,18.8l-4.5,25.1c-0.3,1.8,1.1,3.5,3,3.5h79.1h2.1h79.1
			c1.9,0,3.3-1.7,3-3.5L161.641,423.616z"/>
	</g>
</g>
<g>
</g>
<g>
</g>
<g>
</g>
<g>
</g>
<g>
</g>
<g>
</g>
<g>
</g>
<g>
</g>
<g>
</g>
<g>
</g>
<g>
</g>
<g>
</g>
<g>
</g>
<g>
</g>
<g>
</g>
</svg>
