<?xml version="1.0" encoding="iso-8859-1"?>
<!-- Generator: Adobe Illustrator 19.1.0, SVG Export Plug-In . SVG Version: 6.00 Build 0)  -->
<svg version="1.1" id="Capa_1" xmlns="http://www.w3.org/2000/svg" xmlns:xlink="http://www.w3.org/1999/xlink" x="0px" y="0px"
	 viewBox="0 0 488 488" style="enable-background:new 0 0 488 488;" xml:space="preserve">
<g>
	<g>
		<path d="M407.15,326.3c-53.8-20.5-86-41.6-86-41.6l-41.5,131.1l-5.7,17.8l-18.6-52.6c42.7-59.5-3.2-62.3-11.2-62.4l0,0h-0.1h-0.1
			h-0.1h-0.1l0,0c-7.9,0.1-53.8,2.9-11.2,62.4l-18.6,52.6l-5.7-17.8l-41.5-131.1c0,0-32.2,21-86,41.6
			c-59.2,21.5-55.5,70.3-56.7,161.7h219.7h0.5h219.7C462.65,396.6,466.35,347.8,407.15,326.3z"/>
		<path d="M243.35,273.3c75.3,0,136.6-61.3,136.6-136.6S318.75,0,243.35,0c-75.3,0-136.6,61.3-136.6,136.6
			S168.05,273.3,243.35,273.3z M283.65,230.1c8.3-11.6,16.4-26.2,21.9-44.2h26.9C321.55,205.6,304.35,221.2,283.65,230.1z
			 M341.05,107.8c2.7,9.2,4.2,18.9,4.2,28.9s-1.5,19.7-4.2,28.9h-30.7c1.5-9,2.4-18.6,2.4-28.9c0-10.3-0.9-19.9-2.4-28.9
			C310.35,107.8,341.05,107.8,341.05,107.8z M332.45,87.3h-26.9c-5.5-17.9-13.5-32.6-21.9-44.2C304.35,52.1,321.55,67.7,332.45,87.3
			z M253.55,39.2c9.9,10,22.2,25.8,30.3,48h-30.3V39.2z M253.55,107.8h35.9c1.7,8.9,2.8,18.5,2.8,28.9s-1,20-2.7,28.9h-36
			L253.55,107.8L253.55,107.8z M253.55,186h30.4c-8.1,22.4-20.5,38.3-30.4,48.2V186z M154.35,186h26.9c5.5,17.9,13.5,32.6,21.9,44.2
			C182.35,221.2,165.15,205.6,154.35,186z M233.15,234c-9.9-10-22.2-25.8-30.3-48h30.3V234z M233.15,165.5h-35.9
			c-1.7-8.9-2.8-18.5-2.8-28.9s1-20,2.7-28.9h36L233.15,165.5L233.15,165.5z M233.15,87.3h-30.4c8-22.4,20.5-38.3,30.4-48.2V87.3z
			 M203.05,43.1c-8.3,11.6-16.4,26.2-21.9,44.2h-26.9C165.15,67.7,182.35,52.1,203.05,43.1z M141.55,136.6c0-10,1.5-19.7,4.2-28.9
			h30.7c-1.5,9-2.4,18.6-2.4,28.9s0.9,19.9,2.4,28.9h-30.7C142.95,156.4,141.55,146.7,141.55,136.6z"/>
	</g>
</g>
<g>
</g>
<g>
</g>
<g>
</g>
<g>
</g>
<g>
</g>
<g>
</g>
<g>
</g>
<g>
</g>
<g>
</g>
<g>
</g>
<g>
</g>
<g>
</g>
<g>
</g>
<g>
</g>
<g>
</g>
</svg>
