<?xml version="1.0" encoding="iso-8859-1"?>
<!-- Generator: Adobe Illustrator 19.1.0, SVG Export Plug-In . SVG Version: 6.00 Build 0)  -->
<svg version="1.1" id="Capa_1" xmlns="http://www.w3.org/2000/svg" xmlns:xlink="http://www.w3.org/1999/xlink" x="0px" y="0px"
	 viewBox="0 0 489.409 489.409" style="enable-background:new 0 0 489.409 489.409;" xml:space="preserve">
<g>
	<g>
		<path d="M200.084,319.067L200.084,319.067v-15.4c0,0,48.7,1.5,71.8-22.1c0,0-33.6-9.5-27.6-70.8c6-61.2-7.5-115-56.8-110.5
			c0,0-21.3-25.7-63.8-9.5c-14.6,5.5-53.7,19.6-51.7,104.4s-30.2,85.3-30.2,85.3s16.6,24.1,72.8,23.6v15.8l42.9,124.9l42.7-124.6
			L200.084,319.067z"/>
		<path d="M306.284,399.067c-2.8-15.4-12.7-28.6-26.8-35.5l-53.8-26.6c-3.1-1.5-6.1-3.2-9.1-4.9l17,50.1l-23.7-1.8l-52.4,64.4
			l-52.3-64.4l-23.7,1.8l17.3-50.1l-10.8,5.5l-52.5,25.9c-14,6.9-24,20.1-26.8,35.5l-8.6,47.5c-0.6,3.5,2.1,6.7,5.6,6.7h149.8h4
			h149.8c3.6,0,6.2-3.2,5.6-6.7L306.284,399.067z"/>
		<path d="M458.284,67.367c-41.5-41.5-108.7-41.5-150.2,0c-39.9,39.9-41.4,103.8-4.5,145.5l1.1,0.9c-4,8.7-10.9,19.4-21.9,24.7
			c-3.6,1.8-2.8,7.2,1.2,7.8c12,1.9,29.2-0.2,45.2-12.3l0.2,0.2c40.7,23.9,94,18.4,128.9-16.5
			C499.784,176.167,499.784,108.867,458.284,67.367z M337.484,156.267c-7.6,0-13.8-6.2-13.8-13.8s6.2-13.8,13.8-13.8
			s13.8,6.2,13.8,13.8C351.184,150.067,345.084,156.267,337.484,156.267z M383.184,156.267c-7.6,0-13.8-6.2-13.8-13.8
			s6.2-13.8,13.8-13.8s13.8,6.2,13.8,13.8S390.784,156.267,383.184,156.267z M428.884,156.267c-7.6,0-13.8-6.2-13.8-13.8
			s6.2-13.8,13.8-13.8c7.6,0,13.8,6.2,13.8,13.8S436.484,156.267,428.884,156.267z"/>
	</g>
</g>
<g>
</g>
<g>
</g>
<g>
</g>
<g>
</g>
<g>
</g>
<g>
</g>
<g>
</g>
<g>
</g>
<g>
</g>
<g>
</g>
<g>
</g>
<g>
</g>
<g>
</g>
<g>
</g>
<g>
</g>
</svg>
