<?xml version="1.0" encoding="iso-8859-1"?>
<!-- Generator: Adobe Illustrator 19.1.0, SVG Export Plug-In . SVG Version: 6.00 Build 0)  -->
<svg version="1.1" id="Capa_1" xmlns="http://www.w3.org/2000/svg" xmlns:xlink="http://www.w3.org/1999/xlink" x="0px" y="0px"
	 viewBox="0 0 490.084 490.084" style="enable-background:new 0 0 490.084 490.084;" xml:space="preserve">
<g>
	<g>
		<path d="M200.084,315.442L200.084,315.442v-15.4c0,0,48.7,1.5,71.8-22.1c0,0-33.6-9.5-27.6-70.8c6-61.2-7.5-115-56.8-110.5
			c0,0-21.3-25.7-63.8-9.5c-14.6,5.5-53.7,19.6-51.7,104.4s-30.2,85.3-30.2,85.3s16.6,24.1,72.8,23.6v15.8l42.7,124.9l42.7-124.6
			L200.084,315.442z"/>
		<path d="M306.284,395.542c-2.8-15.4-12.7-28.6-26.8-35.5l-53.8-26.5c-3.1-1.5-6.1-3.2-9.1-4.9l17,50.1l-23.7-1.8l-52.3,64.4
			l-52.3-64.4l-23.7,1.8l17.3-50.1l-10.9,5.4l-52.5,25.9c-14,6.9-24,20.1-26.8,35.5l-8.6,47.5c-0.6,3.5,2.1,6.7,5.6,6.7h149.8h4
			h149.8c3.6,0,6.2-3.2,5.6-6.7L306.284,395.542z"/>
		<path d="M376.284,47.342c-54.5,0-98.7,44.2-98.7,98.7c0,25.6,9.7,48.9,25.7,66.4c-3.7,8-10.1,17.7-20.1,22.6
			c-3.4,1.6-2.6,6.6,1.1,7.2c11.1,1.7,26.9-0.2,41.7-11.3c14.7,8.7,31.9,13.8,50.3,13.8c27.3,0,51.9-11,69.8-28.9l-69.8-69.8V47.342
			z"/>
		<path d="M411.884,159.342l77.5-31.5c-0.4-3.7-1-7.3-1.8-10.8l-83.8,34.1L411.884,159.342z"/>
		<path d="M484.584,106.742c-1.2-3.4-2.5-6.7-4-9.9l-89,36.2v5.8l4,4.1L484.584,106.742z"/>
		<path d="M469.184,78.342l-77.5,31.5l-0.1,11.6l83.8-34.1C473.484,84.242,471.384,81.242,469.184,78.342z"/>
		<path d="M452.884,61.842l-61.1,24.8l-0.1,11.6l70-28.5C458.884,66.942,455.984,64.342,452.884,61.842z"/>
		<path d="M429.784,48.142l-37.9,15.4l-0.1,11.6l50.5-20.6C438.384,52.142,434.184,49.942,429.784,48.142z"/>
		<path d="M391.984,40.442v11.5l22-9C406.984,41.342,399.584,40.442,391.984,40.442z"/>
		<path d="M460.784,208.742c5.2-5.2,9.8-10.9,13.8-17.2l-22,8.9L460.784,208.742z"/>
		<path d="M444.484,192.342l37.8-15.4c1.8-4.3,3.3-8.8,4.5-13.4l-50.4,20.5L444.484,192.342z"/>
		<path d="M489.984,139.142l-69.9,28.4l8.2,8.2l61-24.8c0.5-3.8,0.8-7.7,0.8-11.7C489.984,139.242,489.984,139.242,489.984,139.142z
			"/>
	</g>
</g>
<g>
</g>
<g>
</g>
<g>
</g>
<g>
</g>
<g>
</g>
<g>
</g>
<g>
</g>
<g>
</g>
<g>
</g>
<g>
</g>
<g>
</g>
<g>
</g>
<g>
</g>
<g>
</g>
<g>
</g>
</svg>
