<?xml version="1.0" encoding="iso-8859-1"?>
<!-- Generator: Adobe Illustrator 19.1.0, SVG Export Plug-In . SVG Version: 6.00 Build 0)  -->
<svg version="1.1" id="Capa_1" xmlns="http://www.w3.org/2000/svg" xmlns:xlink="http://www.w3.org/1999/xlink" x="0px" y="0px"
	 viewBox="0 0 488 488" style="enable-background:new 0 0 488 488;" xml:space="preserve">
<g>
	<g>
		<path d="M463.7,301.65c-23.1-8.8-36.9-17.8-36.9-17.8l-17.8,56.2l-2.4,7.6l-8-22.6c18.3-25.5-1.4-26.7-4.8-26.7l0,0c0,0,0,0-0.1,0
			c0,0,0,0-0.1,0c0,0,0,0-0.1,0c0,0,0,0-0.1,0l0,0c-3.4,0-23.1,1.2-4.8,26.7l-8,22.6l-2.4-7.6l-17.8-56.2c0,0-7.8,5.1-21.4,11.3
			c-3.4-2.5-7.4-4.7-12.3-6.5c-27.4-10.5-43.8-21.2-43.8-21.2l-21.1,66.7l-2.9,9l-9.4-26.8c21.7-30.3-1.6-31.7-5.7-31.8l0,0
			c0,0,0,0-0.1,0c0,0,0,0-0.1,0c0,0,0,0-0.1,0c0,0,0,0-0.1,0l0,0c-4,0-27.4,1.5-5.7,31.8l-9.4,26.8l-2.9-9l-21.1-66.7
			c0,0-16.4,10.7-43.8,21.2c-4.9,1.8-8.9,3.9-12.3,6.5c-13.6-6.2-21.4-11.3-21.4-11.3l-17.8,56.2l-2.4,7.6l-8-22.6
			c18.3-25.5-1.4-26.7-4.8-26.7l0,0c0,0,0,0-0.1,0c0,0,0,0-0.1,0c0,0,0,0-0.1,0c0,0,0,0-0.1,0l0,0c-3.4,0-23.1,1.2-4.8,26.7l-8,22.6
			l-2.4-7.6l-17.8-56.2c0,0-13.8,9-36.9,17.8c-24.6,9.3-23,30.2-23.5,69.4h94.1h0.2H132h56.4h55.4h0.3h55.4h56.4h37.7h0.2H488
			C487.5,331.85,489.1,310.95,463.7,301.65z"/>
		<path d="M175,203.35h9.4c1.5,8.1,4.6,15.9,9.4,22.9l-6.6,6.6c-2.5,2.5-2.5,6.5,0,9l6.9,7c2.5,2.5,6.5,2.5,9,0l6.6-6.6
			c7,4.8,14.8,8,22.9,9.5v9.4c0,3.5,2.8,6.4,6.3,6.4h9.8c3.5,0,6.4-2.8,6.4-6.3v-9.4c8-1.5,15.8-4.7,22.8-9.5l6.7,6.7
			c2.5,2.5,6.5,2.5,9,0l7-6.9c2.5-2.5,2.5-6.5,0-9l-6.7-6.8c4.8-7,7.9-14.7,9.4-22.7h9.6c3.5,0,6.4-2.8,6.4-6.3v-9.8
			c0-3.5-2.8-6.4-6.3-6.4h-9.7c-1.5-8-4.6-15.7-9.3-22.6l6.9-6.9c2.5-2.5,2.5-6.5,0-9l-6.9-7c-2.5-2.5-6.5-2.5-9,0l-6.9,6.9
			c-6.9-4.8-14.6-7.9-22.6-9.5v-9.7c0-3.5-2.8-6.4-6.3-6.4h-9.8c-3.5,0-6.4,2.8-6.4,6.3v9.6c-8,1.5-15.8,4.6-22.8,9.3l-6.7-6.8
			c-2.5-2.5-6.5-2.5-9,0l-7,6.9c-2.5,2.5-2.5,6.5,0,9l6.7,6.7c-4.8,7-8,14.7-9.6,22.8h-9.4c-3.5,0-6.4,2.8-6.4,6.3v9.8
			C168.7,200.45,171.5,203.35,175,203.35z M220.9,168.95c12.8-12.8,33.6-12.7,46.4,0.1c12.8,12.8,12.7,33.6-0.1,46.4
			c-12.8,12.8-33.6,12.7-46.4-0.1C208,202.55,208,181.75,220.9,168.95z"/>
		<path d="M338.1,233.95h7.6c1.2,6.5,3.7,12.8,7.6,18.5l-5.3,5.3c-2,2-2,5.2,0,7.3l5.6,5.6c2,2,5.2,2,7.3,0l5.3-5.3
			c5.7,3.9,12,6.4,18.5,7.7v7.6c0,2.8,2.3,5.1,5.1,5.1h7.9c2.8,0,5.1-2.3,5.1-5.1v-7.6c6.5-1.2,12.8-3.8,18.4-7.6l5.4,5.4
			c2,2,5.2,2,7.3,0l5.6-5.6c2-2,2-5.2,0-7.3l-5.4-5.5c3.8-5.6,6.4-11.9,7.6-18.3h7.8c2.8,0,5.1-2.3,5.1-5.1v-7.9
			c0-2.8-2.3-5.1-5.1-5.1h-7.8c-1.2-6.4-3.7-12.7-7.5-18.3l5.6-5.5c2-2,2-5.2,0-7.3l-5.6-5.6c-2-2-5.2-2-7.3,0l-5.6,5.5
			c-5.6-3.8-11.8-6.4-18.2-7.6v-7.8c0-2.8-2.3-5.1-5.1-5.1h-7.9c-2.8,0-5.1,2.3-5.1,5.1v7.8c-6.5,1.2-12.7,3.7-18.4,7.5l-5.4-5.5
			c-2-2-5.2-2-7.3,0l-5.6,5.6c-2,2-2,5.2,0,7.3l5.4,5.4c-3.9,5.6-6.5,11.9-7.7,18.4h-7.6c-2.8,0-5.1,2.3-5.1,5.1v7.9
			C333,231.65,335.3,233.95,338.1,233.95z M375.1,206.25c10.4-10.3,27.1-10.3,37.4,0.1c10.3,10.4,10.3,27.1-0.1,37.4
			c-10.4,10.3-27.1,10.3-37.4-0.1C364.7,233.35,364.7,216.55,375.1,206.25z"/>
		<path d="M38.6,233.95h7.6c1.2,6.5,3.7,12.8,7.6,18.5l-5.3,5.3c-2,2-2,5.2,0,7.3l5.6,5.6c2,2,5.2,2,7.3,0l5.3-5.3
			c5.7,3.9,12,6.4,18.5,7.7v7.6c0,2.8,2.3,5.1,5.1,5.1h7.9c2.8,0,5.1-2.3,5.1-5.1v-7.6c6.5-1.2,12.8-3.8,18.4-7.6l5.4,5.4
			c2,2,5.2,2,7.3,0l5.6-5.6c2-2,2-5.2,0-7.3l-5.4-5.5c3.8-5.6,6.4-11.9,7.6-18.3h7.8c2.8,0,5.1-2.3,5.1-5.1v-7.9
			c0-2.8-2.3-5.1-5.1-5.1h-7.8c-1.2-6.4-3.7-12.7-7.5-18.3l5.6-5.5c2-2,2-5.2,0-7.3l-5.6-5.6c-2-2-5.2-2-7.3,0l-5.6,5.5
			c-5.6-3.8-11.8-6.4-18.2-7.6v-7.8c0-2.8-2.3-5.1-5.1-5.1h-7.9c-2.8,0-5.1,2.3-5.1,5.1v7.8c-6.5,1.2-12.7,3.7-18.4,7.5l-5.4-5.5
			c-2-2-5.2-2-7.3,0l-5.6,5.6c-2,2-2,5.2,0,7.3l5.4,5.4c-3.9,5.6-6.5,11.9-7.7,18.4h-7.6c-2.8,0-5.1,2.3-5.1,5.1v7.9
			C33.5,231.65,35.8,233.95,38.6,233.95z M75.6,206.25c10.4-10.3,27.1-10.3,37.4,0.1c10.3,10.4,10.3,27.1-0.1,37.4
			s-27.1,10.3-37.4-0.1C65.2,233.35,65.2,216.55,75.6,206.25z"/>
	</g>
</g>
<g>
</g>
<g>
</g>
<g>
</g>
<g>
</g>
<g>
</g>
<g>
</g>
<g>
</g>
<g>
</g>
<g>
</g>
<g>
</g>
<g>
</g>
<g>
</g>
<g>
</g>
<g>
</g>
<g>
</g>
</svg>
