<?xml version="1.0" encoding="iso-8859-1"?>
<!-- Generator: Adobe Illustrator 19.1.0, SVG Export Plug-In . SVG Version: 6.00 Build 0)  -->
<svg version="1.1" id="Capa_1" xmlns="http://www.w3.org/2000/svg" xmlns:xlink="http://www.w3.org/1999/xlink" x="0px" y="0px"
	 viewBox="0 0 486.851 486.851" style="enable-background:new 0 0 486.851 486.851;" xml:space="preserve">
<g>
	<g>
		<path d="M315.025,149.251c-3.7-3.7-5.5-5.5-9.6-8.5c-15.6-11.5-34.8-19.3-34.8-19.3l-14.6,46.3l-8.5-24.3c15.4-21.4-1.8-22-4.1-22
			c-2.3,0-19.5,0.6-4.1,22l-8.5,24.3l-14.6-46.3c0,0-19.2,7.7-34.8,19.3c-4.1,3-5.9,4.8-9.6,8.5c-8.7,8.7-5,58.8,0,77.3
			s19.7,44.7,19.7,44.7c3,6.7,4.8,13.8,5.6,21.1l18.8,184.2c0.6,5.9,5.5,10.3,11.4,10.3h16h16.2c5.9,0,10.8-4.5,11.4-10.3
			l18.8-184.2c0.7-7.3,2.6-14.4,5.6-21.1c0,0,14.7-26.3,19.7-44.7C320.025,208.051,323.725,157.951,315.025,149.251z"/>
		<path d="M186.325,76.451l3,7.2c1.1,2.6,4,3.8,6.6,2.8l6.9-2.8c3.6,5.5,8.2,10.3,13.9,14l-2.9,6.9c-1.1,2.6,0.1,5.6,2.7,6.6l7.2,3
			c2.6,1.1,5.6-0.1,6.6-2.7l2.9-6.9c6.6,1.4,13.4,1.4,19.8,0l2.8,6.9c1.1,2.6,4,3.8,6.6,2.8l7.2-3c2.6-1.1,3.8-4,2.8-6.6l-2.9-6.9
			c5.5-3.6,10.2-8.3,13.9-13.9l7,2.9c2.6,1.1,5.6-0.1,6.6-2.7l3-7.2c1.1-2.6-0.1-5.6-2.7-6.6l-7-2.9c1.4-6.6,1.3-13.2,0-19.6
			l7.1-2.9c2.6-1.1,3.8-4,2.8-6.6l-3-7.2c-1.1-2.6-4-3.8-6.6-2.8l-7.2,2.9c-3.5-5.4-8.2-10.1-13.8-13.8l3-7.2
			c1.1-2.6-0.1-5.6-2.7-6.6l-7.2-3c-2.6-1.1-5.6,0.1-6.6,2.7l-3,7.2c-6.6-1.4-13.2-1.4-19.5-0.1l-2.9-7.2c-1.1-2.6-4-3.8-6.6-2.8
			l-7.2,3c-2.6,1.1-3.8,4-2.8,6.6l2.9,7.1c-5.4,3.5-10.2,8.2-13.9,13.8l-7-2.9c-2.6-1.1-5.6,0.1-6.6,2.7l-3,7.2
			c-1.1,2.6,0.1,5.6,2.7,6.6l7,2.9c-1.4,6.6-1.4,13.3-0.1,19.7l-6.9,2.9C186.525,70.851,185.225,73.851,186.325,76.451z
			 M219.225,47.151c5.6-13.3,20.9-19.6,34.2-14.1s19.6,20.9,14.1,34.2c-5.6,13.3-20.9,19.6-34.2,14.1
			C219.925,75.751,213.625,60.451,219.225,47.151z"/>
	</g>
</g>
<g>
</g>
<g>
</g>
<g>
</g>
<g>
</g>
<g>
</g>
<g>
</g>
<g>
</g>
<g>
</g>
<g>
</g>
<g>
</g>
<g>
</g>
<g>
</g>
<g>
</g>
<g>
</g>
<g>
</g>
</svg>
