<?xml version="1.0" encoding="iso-8859-1"?>
<!-- Generator: Adobe Illustrator 19.1.0, SVG Export Plug-In . SVG Version: 6.00 Build 0)  -->
<svg version="1.1" id="Capa_1" xmlns="http://www.w3.org/2000/svg" xmlns:xlink="http://www.w3.org/1999/xlink" x="0px" y="0px"
	 viewBox="0 0 487.05 487.05" style="enable-background:new 0 0 487.05 487.05;" xml:space="preserve">
<g>
	<g>
		<path d="M401.075,330.85c-52-19.8-83.1-40.2-83.1-40.2l-40,126.6l-5.5,17.2l-17.9-50.8c41.2-57.5-3.1-60.2-10.8-60.3l0,0h-0.1
			h-0.1h-0.1h-0.1l0,0c-7.7,0.1-52,2.8-10.8,60.3l-18.1,50.8l-5.5-17.2l-40-126.6c0,0-31.1,20.3-83.1,40.2
			c-57.2,20.8-53.7,67.9-54.8,156.2h212.2h0.5h212.2C454.775,398.75,458.375,351.65,401.075,330.85z"/>
		<path d="M141.675,226.95c-5.1,11.1-14,24.7-28,31.6c-4.6,2.3-3.6,9.2,1.5,10c15.3,2.4,37.3-0.3,57.7-15.8l0.3,0.2
			c52.1,30.6,120.1,23.6,164.8-21.1c53-53,53-139,0-192.1c-53-53-139-53-192.1,0c-51.1,51.1-53,132.7-5.7,186L141.675,226.95z
			 M300.575,118.25c9.7,0,17.6,7.9,17.6,17.6s-7.9,17.6-17.6,17.6s-17.6-7.9-17.6-17.6S290.875,118.25,300.575,118.25z
			 M242.075,118.25c9.7,0,17.6,7.9,17.6,17.6s-7.9,17.6-17.6,17.6s-17.6-7.9-17.6-17.6S232.375,118.25,242.075,118.25z
			 M183.575,118.25c9.7,0,17.6,7.9,17.6,17.6s-7.9,17.6-17.6,17.6c-9.7,0-17.6-7.9-17.6-17.6S173.875,118.25,183.575,118.25z"/>
	</g>
</g>
<g>
</g>
<g>
</g>
<g>
</g>
<g>
</g>
<g>
</g>
<g>
</g>
<g>
</g>
<g>
</g>
<g>
</g>
<g>
</g>
<g>
</g>
<g>
</g>
<g>
</g>
<g>
</g>
<g>
</g>
</svg>
