<?xml version="1.0" encoding="iso-8859-1"?>
<!-- Generator: Adobe Illustrator 19.1.0, SVG Export Plug-In . SVG Version: 6.00 Build 0)  -->
<svg version="1.1" id="Capa_1" xmlns="http://www.w3.org/2000/svg" xmlns:xlink="http://www.w3.org/1999/xlink" x="0px" y="0px"
	 viewBox="0 0 488.413 488.413" style="enable-background:new 0 0 488.413 488.413;" xml:space="preserve">
<g>
	<g>
		<path d="M138.515,168.213L138.515,168.213c0.1,0,0.1,0,0.2,0c0.1,0,0.1,0,0.2,0l0,0c35.9-0.4,30.7-48.3,30.7-48.3
			c-1.5-32.1-28.3-31.8-30.9-31.7c-2.6-0.1-29.5-0.4-30.9,31.7C107.715,119.813,102.515,167.813,138.515,168.213z"/>
		<path d="M213.715,119.813c0,0-5.2,48,30.7,48.3l0,0c0.1,0,0.1,0,0.2,0c0.1,0,0.1,0,0.2,0l0,0c35.9-0.4,30.7-48.3,30.7-48.3
			c-1.5-32.1-28.3-31.8-30.9-31.7C242.015,88.113,215.215,87.813,213.715,119.813z"/>
		<path d="M319.615,119.813c0,0-5.2,48,30.7,48.3l0,0c0.1,0,0.1,0,0.2,0s0.1,0,0.2,0l0,0c35.9-0.4,30.7-48.3,30.7-48.3
			c-1.5-32.1-28.3-31.8-30.9-31.7C347.915,88.113,321.115,87.813,319.615,119.813z"/>
		<path d="M411.615,200.813c-3.1-3.1-4.7-4.6-8.2-7.2c-13.3-9.8-29.7-16.4-29.7-16.4l-12.5,39.4l-7.3-20.7
			c13.1-18.2-1.5-18.8-3.5-18.8s-16.6,0.5-3.5,18.8l-7.3,20.7l-12.5-39.4c0,0-16.3,6.6-29.7,16.4c0,0,0,0-0.1,0c0,0,0,0-0.1,0
			c-13.3-9.8-29.7-16.4-29.7-16.4l-12.5,39.4l-7.3-20.7c13.1-18.2-1.5-18.8-3.5-18.8s-16.6,0.5-3.5,18.8l-7.3,20.7l-12.5-39.4
			c0,0-16.3,6.6-29.7,16.4c0,0,0,0-0.1,0c0,0,0,0-0.1,0c-13.3-9.8-29.7-16.4-29.7-16.4l-12.5,39.4l-7.3-20.7
			c13.1-18.2-1.5-18.8-3.5-18.8s-16.6,0.5-3.5,18.8l-7.3,20.7l-12.5-39.4c0,0-16.3,6.6-29.7,16.4c-3.5,2.6-5.1,4.1-8.2,7.2
			c-7.4,7.4-4.3,50.1,0,65.8s16.8,38.1,16.8,38.1c2.5,5.7,4.1,11.8,4.7,18l16,156.9c0.5,5,4.7,8.8,9.7,8.8h13.8h13.8
			c5,0,9.2-3.8,9.7-8.8l16-156.9c0.6-6.2,2.2-12.3,4.7-18c0,0,4.3-7.6,8.7-17.1c4.4,9.5,8.7,17.1,8.7,17.1c2.5,5.7,4.1,11.8,4.7,18
			l16,156.9c0.5,5,4.7,8.8,9.7,8.8h14.8h13.8c5,0,9.2-3.8,9.7-8.8l16-156.9c0.6-6.2,2.2-12.3,4.7-18c0,0,4.3-7.6,8.7-17.1
			c4.4,9.5,8.7,17.1,8.7,17.1c2.5,5.7,4.1,11.8,4.7,18l16,156.9c0.5,5,4.7,8.8,9.7,8.8h13.8h13.8c5,0,9.2-3.8,9.7-8.8l16-156.9
			c0.6-6.2,2.2-12.3,4.7-18c0,0,12.5-22.4,16.8-38.1C415.915,250.913,419.015,208.113,411.615,200.813z"/>
		<path d="M191.815,80.013L191.815,80.013c0.1,0,0.1,0,0.2,0c0.1,0,0.1,0,0.2,0l0,0c35.9-0.4,30.7-48.3,30.7-48.3
			c-1.5-32.1-28.3-31.8-30.9-31.7c-2.6-0.1-29.5-0.4-30.9,31.7C161.115,31.713,155.915,79.713,191.815,80.013z"/>
		<path d="M297.815,80.013L297.815,80.013c0.1,0,0.1,0,0.2,0s0.1,0,0.2,0l0,0c35.9-0.4,30.7-48.3,30.7-48.3
			c-1.5-32.1-28.3-31.8-30.9-31.7c-2.6-0.1-29.5-0.4-30.9,31.7C267.015,31.713,261.815,79.713,297.815,80.013z"/>
	</g>
</g>
<g>
</g>
<g>
</g>
<g>
</g>
<g>
</g>
<g>
</g>
<g>
</g>
<g>
</g>
<g>
</g>
<g>
</g>
<g>
</g>
<g>
</g>
<g>
</g>
<g>
</g>
<g>
</g>
<g>
</g>
</svg>
