<?xml version="1.0" encoding="iso-8859-1"?>
<!-- Generator: Adobe Illustrator 19.1.0, SVG Export Plug-In . SVG Version: 6.00 Build 0)  -->
<svg version="1.1" id="Capa_1" xmlns="http://www.w3.org/2000/svg" xmlns:xlink="http://www.w3.org/1999/xlink" x="0px" y="0px"
	 viewBox="0 0 489.051 489.051" style="enable-background:new 0 0 489.051 489.051;" xml:space="preserve">
<g>
	<g>
		<path d="M187.375,76.851l3,7.3c1.1,2.6,4,3.8,6.6,2.8l6.9-2.8c3.6,5.5,8.3,10.3,14,14.1l-2.9,6.9c-1.1,2.6,0.1,5.6,2.7,6.7l7.3,3
			c2.6,1.1,5.6-0.1,6.7-2.7l2.9-6.9c6.7,1.4,13.4,1.4,19.8,0l2.8,6.9c1.1,2.6,4,3.8,6.6,2.8l7.3-3c2.6-1.1,3.8-4,2.8-6.6l-2.9-7
			c5.5-3.6,10.3-8.3,14-14l7,2.9c2.6,1.1,5.6-0.1,6.7-2.7l3-7.3c1.1-2.6-0.1-5.6-2.7-6.7l-7.1-2.9c1.4-6.6,1.3-13.3,0-19.7l7.1-2.9
			c2.6-1.1,3.8-4,2.8-6.6l-3-7.3c-1.1-2.6-4-3.8-6.6-2.8l-7.2,3c-3.6-5.4-8.2-10.2-13.8-13.9l3-7.2c1.1-2.6-0.1-5.6-2.7-6.7l-7.3-3
			c-2.6-1.1-5.6,0.1-6.7,2.7l-3,7.2c-6.6-1.4-13.2-1.4-19.6-0.1l-3-7.2c-1.1-2.6-4-3.8-6.6-2.8l-7.3,3c-2.6,1.1-3.8,4-2.8,6.6
			l2.9,7.1c-5.5,3.5-10.3,8.2-14,13.8l-7.1-2.9c-2.6-1.1-5.6,0.1-6.7,2.7l-3,7.3c-1.1,2.6,0.1,5.6,2.7,6.7l7,2.9
			c-1.4,6.6-1.4,13.4-0.1,19.8l-7,2.9C187.575,71.251,186.375,74.251,187.375,76.851z M220.475,47.451c5.6-13.4,20.9-19.7,34.3-14.1
			c13.4,5.6,19.7,20.9,14.1,34.3s-20.9,19.7-34.3,14.1S214.875,60.851,220.475,47.451z"/>
		<path d="M320.075,95.451l2.6,6.4c0.9,2.3,3.6,3.4,5.9,2.4l6.1-2.5c3.1,4.9,7.3,9.1,12.3,12.4l-2.5,6.1c-1,2.3,0.1,4.9,2.4,5.9
			l6.4,2.7c2.3,1,4.9-0.1,5.9-2.4l2.5-6.1c5.9,1.2,11.8,1.2,17.5,0l2.5,6.1c0.9,2.3,3.6,3.4,5.9,2.4l6.4-2.6
			c2.3-0.9,3.4-3.6,2.4-5.9l-2.5-6.1c4.8-3.2,9.1-7.3,12.3-12.3l6.2,2.6c2.3,1,4.9-0.1,5.9-2.4l2.7-6.4c1-2.3-0.1-4.9-2.4-5.9
			l-6.2-2.6c1.2-5.8,1.2-11.7,0-17.4l6.3-2.6c2.3-0.9,3.4-3.6,2.4-5.9l-2.6-6.4c-0.9-2.3-3.6-3.4-5.9-2.4l-6.3,2.6
			c-3.1-4.8-7.3-9-12.2-12.2l2.6-6.3c1-2.3-0.1-4.9-2.4-5.9l-6.4-2.7c-2.3-1-4.9,0.1-5.9,2.4l-2.6,6.3c-5.8-1.2-11.7-1.2-17.3-0.1
			l-2.6-6.3c-0.9-2.3-3.6-3.4-5.9-2.4l-6.4,2.6c-2.3,0.9-3.4,3.6-2.4,5.9l2.6,6.3c-4.8,3.1-9,7.2-12.3,12.2l-6.2-2.6
			c-2.3-1-4.9,0.1-5.9,2.4l-2.7,6.4c-1,2.3,0.1,4.9,2.4,5.9l6.2,2.6c-1.3,5.9-1.2,11.8-0.1,17.4l-6.1,2.5
			C320.175,90.551,319.075,93.151,320.075,95.451z M349.175,69.551c4.9-11.8,18.5-17.4,30.3-12.5s17.4,18.5,12.5,30.3
			s-18.5,17.4-30.3,12.5C349.875,94.851,344.275,81.351,349.175,69.551z"/>
		<path d="M434.075,159.951c-3.2-3.2-4.9-4.8-8.5-7.5c-13.9-10.2-30.9-17.1-30.9-17.1l-13,41l-7.6-21.5c13.6-19-1.6-19.5-3.6-19.5
			s-17.2,0.5-3.6,19.5l-7.6,21.5l-13-41c0,0-15.4,6.2-28.9,15.6c-0.3-0.4-0.6-0.8-0.9-1.1c-3.7-3.7-5.5-5.5-9.6-8.5
			c-15.7-11.6-35-19.3-35-19.3l-14.7,46.5l-8.6-24.4c15.4-21.5-1.8-22.1-4.1-22.1c-2.3,0-19.5,0.6-4.1,22.1l-8.6,24.4l-14.7-46.5
			c0,0-19.3,7.8-35,19.3c-4.1,3-6,4.8-9.6,8.5c-0.3,0.3-0.6,0.7-0.9,1.1c-13.4-9.4-28.8-15.6-28.8-15.6l-13,41l-7.6-21.5
			c13.6-19-1.6-19.5-3.6-19.5s-17.2,0.5-3.6,19.5l-7.6,21.5l-13-41c0,0-17,6.9-30.9,17.1c-3.6,2.7-5.3,4.3-8.5,7.5
			c-7.7,7.7-4.4,52.1,0,68.4c4.7,16.4,17.7,39.7,17.7,39.7c2.6,5.9,4.3,12.2,4.9,18.7l16.6,163.2c0.5,5.2,4.9,9.1,10.1,9.1h14.4
			h14.4c5.2,0,9.6-3.9,10.1-9.1l16.6-163.2c0.7-6.5,2.3-12.8,4.9-18.7c0,0,7.2-13,12.8-26.3c6.3,15.5,14.8,30.7,14.8,30.7
			c3,6.7,4.9,13.9,5.6,21.2l18.8,185c0.6,5.9,5.6,10.4,11.5,10.4h16.5h16.3c5.9,0,10.9-4.5,11.5-10.4l18.8-185
			c0.7-7.3,2.6-14.5,5.6-21.2c0,0,8.6-15.3,14.9-30.8c5.5,13.4,12.8,26.4,12.8,26.4c2.6,5.9,4.3,12.2,4.9,18.7l16.6,163.2
			c0.5,5.2,4.9,9.1,10.1,9.1h14.4h14.4c5.2,0,9.6-3.9,10.1-9.1l16.6-163.2c0.7-6.5,2.3-12.8,4.9-18.7c0,0,13-23.3,17.5-39.6
			C438.475,212.051,441.775,167.651,434.075,159.951z"/>
		<path d="M70.775,67.351l6.3,2.6c-1.2,5.6-1.2,11.5,0,17.4l-6.2,2.6c-2.3,1-3.4,3.6-2.4,5.9l2.7,6.4c1,2.3,3.6,3.4,5.9,2.4l6.2-2.6
			c3.3,5,7.5,9.2,12.3,12.3l-2.5,6.1c-0.9,2.3,0.2,4.9,2.4,5.9l6.4,2.6c2.3,0.9,4.9-0.2,5.9-2.4l2.5-6.1c5.7,1.2,11.6,1.2,17.5,0
			l2.5,6.1c1,2.3,3.6,3.4,5.9,2.4l6.4-2.7c2.3-1,3.4-3.6,2.4-5.9l-2.5-6.1c5-3.3,9.2-7.6,12.3-12.4l6.1,2.5c2.3,0.9,4.9-0.2,5.9-2.4
			l2.6-6.4c0.9-2.3-0.2-4.9-2.4-5.9l-6.1-2.5c1.2-5.7,1.2-11.6-0.1-17.4l6.2-2.6c2.3-1,3.4-3.6,2.4-5.9l-2.7-6.4
			c-1-2.3-3.6-3.4-5.9-2.4l-6.2,2.6c-3.3-5-7.5-9.1-12.3-12.2l2.4-6.4c0.9-2.3-0.2-4.9-2.4-5.9l-6.4-2.6c-2.3-0.9-4.9,0.2-5.9,2.4
			l-2.6,6.3c-5.6-1.1-11.5-1.2-17.3,0.1l-2.6-6.3c-1-2.3-3.6-3.4-5.9-2.4l-6.4,2.7c-2.3,1-3.4,3.6-2.4,5.9l2.6,6.3
			c-5,3.3-9.1,7.5-12.2,12.2l-6.3-2.6c-2.3-0.9-4.9,0.2-5.9,2.4l-2.7,6.5C67.375,63.751,68.475,66.351,70.775,67.351z
			 M109.875,57.151c11.8-4.9,25.4,0.7,30.3,12.5c4.9,11.8-0.7,25.4-12.5,30.3s-25.4-0.7-30.3-12.5
			C92.475,75.551,98.075,62.051,109.875,57.151z"/>
	</g>
</g>
<g>
</g>
<g>
</g>
<g>
</g>
<g>
</g>
<g>
</g>
<g>
</g>
<g>
</g>
<g>
</g>
<g>
</g>
<g>
</g>
<g>
</g>
<g>
</g>
<g>
</g>
<g>
</g>
<g>
</g>
</svg>
