<?xml version="1.0" encoding="iso-8859-1"?>
<!-- Generator: Adobe Illustrator 19.1.0, SVG Export Plug-In . SVG Version: 6.00 Build 0)  -->
<svg version="1.1" id="Capa_1" xmlns="http://www.w3.org/2000/svg" xmlns:xlink="http://www.w3.org/1999/xlink" x="0px" y="0px"
	 viewBox="0 0 489.237 489.237" style="enable-background:new 0 0 489.237 489.237;" xml:space="preserve">
<g>
	<g>
		<circle cx="266.275" cy="243.3" r="14.3"/>
		<path d="M266.175,0c-28.3,0-55.6,6.2-79.8,18c-63.8,29.9-108.1,94.2-108.1,168.9v24.7v6.2l-38.1,73.1
			c-9.8,18.5-0.5,33.5,20.1,33.5h18v0.5v31.4v37.1c0,21.6,17.5,39.1,39.1,39.1l54-8.2v54v0.5c0,6.7,6.2,11.3,13.4,10.3l194.1-34.5
			c7.2-1.5,13.4-8.2,13.4-16v-8.8v-6.7v-98.8c37.1-34,60.7-82.9,60.7-137.4C452.575,83.9,369.175,0,266.175,0z M358.575,278.4
			c-42.9,42.9-108.4,49.6-158.4,20.4l-0.4-0.4c-19.5,15-40.7,17.3-55.8,15c-4.9-0.9-5.8-7.5-1.3-9.7c13.3-6.6,22.1-19.9,27-30.5
			l-0.9-0.9c-45.6-51.3-43.8-129.6,5.3-178.8c50.9-51.3,133.6-51.3,184.5,0C409.375,144.3,409.375,227.1,358.575,278.4z"/>
		<path d="M266.375,218.7c6.2,0,11.4-5,11.5-11.2l2.3-79.5c0.2-7.8-6-14.2-13.8-14.2s-14,6.4-13.8,14.2l2.2,79.5
			C254.975,213.8,260.075,218.7,266.375,218.7z"/>
	</g>
</g>
<g>
</g>
<g>
</g>
<g>
</g>
<g>
</g>
<g>
</g>
<g>
</g>
<g>
</g>
<g>
</g>
<g>
</g>
<g>
</g>
<g>
</g>
<g>
</g>
<g>
</g>
<g>
</g>
<g>
</g>
</svg>
