<?xml version="1.0" encoding="iso-8859-1"?>
<!-- Generator: Adobe Illustrator 19.1.0, SVG Export Plug-In . SVG Version: 6.00 Build 0)  -->
<svg version="1.1" id="Capa_1" xmlns="http://www.w3.org/2000/svg" xmlns:xlink="http://www.w3.org/1999/xlink" x="0px" y="0px"
	 viewBox="0 0 489.759 489.759" style="enable-background:new 0 0 489.759 489.759;" xml:space="preserve">
<g>
	<g>
		<path d="M245.531,176.159c-2.9,0-5.2,2.3-5.2,5.2v42.4l-35.6,23.1c-2.4,1.6-3.1,4.8-1.5,7.2c1,1.5,2.7,2.4,4.4,2.4
			c1,0,2-0.3,2.8-0.8l35.1-22.8l35.1,22.8c0.9,0.6,1.9,0.8,2.8,0.8c1.7,0,3.4-0.8,4.4-2.4c1.6-2.4,0.9-5.7-1.5-7.2l-35.5-23.1v-42.4
			C250.831,178.459,248.431,176.159,245.531,176.159z"/>
		<path d="M383.831,392.359l-35.6-23.1v-42.4c0-2.9-2.3-5.2-5.2-5.2c-2.9,0-5.2,2.3-5.2,5.2v42.4l-35.6,23.1
			c-2.4,1.6-3.1,4.8-1.5,7.2c1,1.5,2.7,2.4,4.4,2.4c1,0,2-0.3,2.8-0.8l35.1-22.8l35.1,22.8c0.9,0.6,1.9,0.8,2.8,0.8
			c1.7,0,3.4-0.8,4.4-2.4C386.931,397.159,386.231,393.859,383.831,392.359z"/>
		<path d="M188.831,392.359l-35.6-23.1v-42.4c0-2.9-2.3-5.2-5.2-5.2s-5.2,2.3-5.2,5.2v42.4l-35.6,23.1c-2.4,1.6-3.1,4.8-1.5,7.2
			c1,1.5,2.7,2.4,4.4,2.4c1,0,2-0.3,2.8-0.8l35.1-22.8l35.1,22.8c0.9,0.6,1.9,0.8,2.8,0.8c1.7,0,3.4-0.8,4.4-2.4
			C191.931,397.159,191.231,393.859,188.831,392.359z"/>
		<path d="M258.631,114.159L258.631,114.159v-4.7c0,0,14.9,0.5,22-6.8c0,0-10.3-2.9-8.5-21.7c1.9-18.8-2.3-35.2-17.4-33.9
			c0,0-6.5-7.9-19.6-2.9c-4.5,1.7-16.5,6-15.8,32c0.6,26-9.2,26.2-9.2,26.2s5.1,7.4,22.3,7.2v4.9l13.1,38.3l13.1-38.2V114.159z"/>
		<path d="M291.131,138.659c-0.9-4.7-3.9-8.8-8.2-10.9l-16.5-8.1c-1-0.5-1.9-1-2.8-1.5l5.2,15.4l-7.3-0.6l-16,19.7l-16-19.7
			l-7.3,0.6l5.3-15.4l-3.3,1.7l-16.1,7.9c-4.3,2.1-7.4,6.2-8.2,10.9l-2.6,14.5c-0.2,1.1,0.6,2.1,1.7,2.1h45.9h1.2h45.9
			c1.1,0,1.9-1,1.7-2.1L291.131,138.659z"/>
		<path d="M357.031,260.459L357.031,260.459v-4.7c0,0,14.9,0.5,22-6.8c0,0-10.3-2.9-8.5-21.7c1.9-18.8-2.3-35.2-17.4-33.9
			c0,0-6.5-7.9-19.6-2.9c-4.5,1.7-16.5,6-15.8,32c0.6,26-9.2,26.2-9.2,26.2s5.1,7.4,22.3,7.2v4.9l13.1,38.3l13.1-38.2V260.459z"/>
		<path d="M389.531,284.959c-0.9-4.7-3.9-8.8-8.2-10.9l-16.5-8.1c-1-0.5-1.9-1-2.8-1.5l5.2,15.4l-7.3-0.6l-16,19.7l-16-19.7
			l-7.3,0.6l5.3-15.4l-3.3,1.7l-16.1,7.9c-4.3,2.1-7.3,6.2-8.2,10.9l-2.6,14.5c-0.2,1.1,0.6,2.1,1.7,2.1h45.9h1.2h45.9
			c1.1,0,1.9-1,1.7-2.1L389.531,284.959z"/>
		<path d="M160.231,260.459L160.231,260.459v-4.7c0,0,14.9,0.5,22-6.8c0,0-10.3-2.9-8.5-21.7c1.9-18.8-2.3-35.2-17.4-33.9
			c0,0-6.5-7.9-19.6-2.9c-4.5,1.7-16.5,6-15.8,32c0.6,26-9.2,26.2-9.2,26.2s5.1,7.4,22.3,7.2v4.9l13.1,38.3l13.1-38.2
			L160.231,260.459z"/>
		<path d="M192.731,284.959c-0.9-4.7-3.9-8.8-8.2-10.9l-16.5-8.1c-1-0.5-1.9-1-2.8-1.5l5.2,15.4l-7.3-0.6l-16,19.7l-16-19.7
			l-7.3,0.6l5.3-15.4l-3.3,1.7l-16.1,7.9c-4.3,2.1-7.4,6.2-8.2,10.9l-2.6,14.5c-0.2,1.1,0.6,2.1,1.7,2.1h45.9h1.2h45.9
			c1.1,0,1.9-1,1.7-2.1L192.731,284.959z"/>
		<path d="M454.531,406.059L454.531,406.059v-4.7c0,0,14.9,0.5,22-6.8c0,0-10.3-2.9-8.5-21.7c1.9-18.8-2.3-35.2-17.4-33.9
			c0,0-6.5-7.9-19.6-2.9c-4.5,1.7-16.5,6-15.8,32c0.6,26-9.2,26.2-9.2,26.2s5.1,7.4,22.3,7.2v4.9l13.1,38.3l13.1-38.2V406.059z"/>
		<path d="M489.731,445.159l-2.6-14.5c-0.9-4.7-3.9-8.8-8.2-10.9l-16.5-8.1c-1-0.5-1.9-1-2.8-1.5l5.2,15.4l-7.3-0.6l-16,19.7
			l-16-19.7l-7.3,0.6l5.3-15.4l-3.3,1.7l-16.1,7.9c-4.3,2.1-7.4,6.2-8.2,10.9l-2.6,14.5c-0.2,1.1,0.6,2.1,1.7,2.1h45.8h1.2h45.9
			C489.031,447.159,489.931,446.159,489.731,445.159z"/>
		<path d="M257.731,406.059L257.731,406.059v-4.7c0,0,14.9,0.5,22-6.8c0,0-10.3-2.9-8.5-21.7c1.9-18.8-2.3-35.2-17.4-33.9
			c0,0-6.5-7.9-19.6-2.9c-4.5,1.7-16.5,6-15.8,32c0.6,26-9.2,26.2-9.2,26.2s5.1,7.4,22.3,7.2v4.9l13.1,38.3l13.1-38.2V406.059z"/>
		<path d="M290.231,430.559c-0.9-4.7-3.9-8.8-8.2-10.9l-16.5-8.1c-1-0.5-1.9-1-2.8-1.5l5.2,15.4l-7.3-0.6l-16,19.7l-16-19.7
			l-7.3,0.6l5.3-15.4l-3.3,1.7l-16.1,7.9c-4.3,2.1-7.3,6.2-8.2,10.9l-2.6,14.5c-0.2,1.1,0.6,2.1,1.7,2.1h45.9h1.2h45.9
			c1.1,0,1.9-1,1.7-2.1L290.231,430.559z"/>
		<path d="M61.231,406.059L61.231,406.059v-4.7c0,0,14.9,0.5,22-6.8c0,0-10.3-2.9-8.5-21.7c1.9-18.8-2.3-35.2-17.4-33.9
			c0,0-6.5-7.9-19.6-2.9c-4.5,1.7-16.5,6-15.8,32c0.6,26-9.2,26.2-9.2,26.2s5.1,7.4,22.3,7.2v4.9l13.1,38.3l13.1-38.2V406.059z"/>
		<path d="M93.831,430.559c-0.9-4.7-3.9-8.8-8.2-10.9l-16.5-8.1c-1-0.5-1.9-1-2.8-1.5l5.2,15.4l-7.3-0.6l-16,19.7l-16-19.7l-7.3,0.6
			l5.3-15.4l-3.3,1.7l-16.1,7.9c-4.3,2.1-7.3,6.2-8.2,10.9l-2.6,14.5c-0.2,1.1,0.6,2.1,1.7,2.1h45.9h1.2h45.9c1.1,0,1.9-1,1.7-2.1
			L93.831,430.559z"/>
	</g>
</g>
<g>
</g>
<g>
</g>
<g>
</g>
<g>
</g>
<g>
</g>
<g>
</g>
<g>
</g>
<g>
</g>
<g>
</g>
<g>
</g>
<g>
</g>
<g>
</g>
<g>
</g>
<g>
</g>
<g>
</g>
</svg>
