<?xml version="1.0" encoding="iso-8859-1"?>
<!-- Generator: Adobe Illustrator 19.1.0, SVG Export Plug-In . SVG Version: 6.00 Build 0)  -->
<svg version="1.1" id="Capa_1" xmlns="http://www.w3.org/2000/svg" xmlns:xlink="http://www.w3.org/1999/xlink" x="0px" y="0px"
	 viewBox="0 0 488.07 488.07" style="enable-background:new 0 0 488.07 488.07;" xml:space="preserve">
<g>
	<g>
		<path d="M65.746,313.438c4.6,0,8.3-3.7,8.3-8.3v-47.9h161.6v47.9c0,4.6,3.7,8.3,8.3,8.3c4.6,0,8.3-3.7,8.3-8.3v-47.9h161.6v47.9
			c0,4.6,3.7,8.3,8.3,8.3c4.6,0,8.3-3.7,8.3-8.3v-56.3c0-4.6-3.7-8.3-8.3-8.3h-169.4v-51.6c0-4.6-3.7-8.3-8.3-8.3s-8.3,3.7-8.3,8.3
			v51.6h-170.4c-4.6,0-8.3,3.7-8.3,8.3v56.3C57.446,309.738,61.146,313.438,65.746,313.438z"/>
		<path d="M261.746,100.838L261.746,100.838v-6.4c0,0,20.2,0.6,29.8-9.2c0,0-14-4-11.5-29.4s-3.1-47.8-23.6-45.9
			c0,0-8.9-10.7-26.5-4c-6.1,2.3-22.3,8.1-21.5,43.4s-12.5,35.5-12.5,35.5s6.9,10,30.3,9.8v6.6l17.8,51.9l17.7-51.8V100.838z"/>
		<path d="M180.946,156.638h62.2h1.6h62.3c1.5,0,2.6-1.3,2.3-2.8l-3.6-19.7c-1.2-6.4-5.3-11.9-11.1-14.8l-22.4-11
			c-1.3-0.6-2.5-1.3-3.8-2l7.1,20.8l-9.9-0.8l-21.6,26.8l-21.8-26.8l-9.9,0.8l7.2-20.8l-4.5,2.3l-21.8,10.8
			c-5.8,2.9-10,8.4-11.1,14.8l-3.6,19.7C178.346,155.238,179.446,156.638,180.946,156.638z"/>
		<path d="M261.746,428.538L261.746,428.538v-6.4c0,0,20.2,0.6,29.8-9.2c0,0-14-4-11.5-29.4s-3.1-47.8-23.6-45.9
			c0,0-8.9-10.7-26.5-4c-6.1,2.3-22.3,8.1-21.5,43.4s-12.5,35.5-12.5,35.5s6.9,10,30.3,9.8v6.6l17.8,51.9l17.7-51.8V428.538z"/>
		<path d="M305.846,461.738c-1.2-6.4-5.3-11.9-11.1-14.8l-22.4-11c-1.3-0.6-2.5-1.3-3.8-2l7.1,20.8l-9.9-0.8l-21.7,26.8l-21.8-26.7
			l-9.9,0.8l7.2-20.8l-4.5,2.3l-21.7,10.7c-5.8,2.9-10,8.4-11.1,14.8l-3.6,19.7c-0.3,1.5,0.9,2.8,2.3,2.8h62.2h1.6h62.3
			c1.5,0,2.6-1.3,2.3-2.8L305.846,461.738z"/>
		<path d="M440.346,428.538L440.346,428.538v-6.4c0,0,20.2,0.6,29.8-9.2c0,0-14-4-11.5-29.4s-3.1-47.8-23.6-45.9
			c0,0-8.9-10.7-26.5-4c-6.1,2.3-22.3,8.1-21.5,43.4s-12.5,35.5-12.5,35.5s6.9,10,30.3,9.8v6.6l17.8,51.9l17.7-51.8L440.346,428.538
			z"/>
		<path d="M488.046,481.538l-3.6-19.7c-1.2-6.4-5.3-11.9-11.1-14.8l-22.4-11c-1.3-0.6-2.5-1.3-3.8-2l7.1,20.8l-9.9-0.8l-21.8,26.8
			l-21.7-26.8l-9.9,0.8l7.2-20.8l-4.5,2.3l-21.7,10.7c-5.8,2.9-10,8.4-11.1,14.8l-3.6,19.7c-0.3,1.5,0.9,2.8,2.3,2.8h62.2h1.6h62.2
			C487.146,484.338,488.246,482.938,488.046,481.538z"/>
		<path d="M83.146,428.538L83.146,428.538v-6.4c0,0,20.2,0.6,29.8-9.2c0,0-14-4-11.5-29.4s-3.1-47.8-23.6-45.9c0,0-8.9-10.7-26.5-4
			c-6.1,2.3-22.3,8.1-21.5,43.4s-12.5,35.5-12.5,35.5s6.9,10,30.3,9.8v6.6l17.8,51.9l17.8-51.8L83.146,428.538z"/>
		<path d="M127.346,461.738c-1.2-6.4-5.3-11.9-11.1-14.8l-22.4-11c-1.3-0.6-2.5-1.3-3.8-2l7.1,20.8l-9.9-0.8l-21.8,26.8l-21.7-26.7
			l-9.9,0.8l7.2-20.8l-4.5,2.3l-21.8,10.7c-5.8,2.9-10,8.4-11.1,14.8l-3.6,19.7c-0.3,1.5,0.9,2.8,2.3,2.8h62.2h1.6h62.2
			c1.5,0,2.6-1.3,2.3-2.8L127.346,461.738z"/>
	</g>
</g>
<g>
</g>
<g>
</g>
<g>
</g>
<g>
</g>
<g>
</g>
<g>
</g>
<g>
</g>
<g>
</g>
<g>
</g>
<g>
</g>
<g>
</g>
<g>
</g>
<g>
</g>
<g>
</g>
<g>
</g>
</svg>
