<?xml version="1.0" encoding="iso-8859-1"?>
<!-- Generator: Adobe Illustrator 19.1.0, SVG Export Plug-In . SVG Version: 6.00 Build 0)  -->
<svg version="1.1" id="Capa_1" xmlns="http://www.w3.org/2000/svg" xmlns:xlink="http://www.w3.org/1999/xlink" x="0px" y="0px"
	 viewBox="0 0 488 488" style="enable-background:new 0 0 488 488;" xml:space="preserve">
<g>
	<g>
		<path d="M244.7,175.051c-2.9,0-5.2,2.3-5.2,5.2v42.2l-35.4,23c-2.4,1.6-3.1,4.8-1.5,7.2c1,1.5,2.7,2.4,4.4,2.4c1,0,2-0.3,2.8-0.8
			l34.9-22.7l34.9,22.7c0.9,0.6,1.9,0.8,2.8,0.8c1.7,0,3.4-0.8,4.4-2.4c1.6-2.4,0.9-5.6-1.5-7.2l-35.4-23v-42.2
			C249.9,177.451,247.6,175.051,244.7,175.051z"/>
		<path d="M382.4,390.451l-35.4-23v-42.2c0-2.9-2.3-5.2-5.2-5.2c-2.9,0-5.2,2.3-5.2,5.2v42.2l-35.4,23c-2.4,1.6-3.1,4.8-1.5,7.2
			c1,1.5,2.7,2.4,4.4,2.4c1,0,2-0.3,2.8-0.8l34.9-22.7l34.9,22.7c0.9,0.6,1.9,0.8,2.8,0.8c1.7,0,3.4-0.8,4.4-2.4
			C385.5,395.251,384.8,391.951,382.4,390.451z"/>
		<path d="M188.2,390.451l-35.4-23v-42.2c0-2.9-2.3-5.2-5.2-5.2s-5.2,2.3-5.2,5.2v42.2l-35.4,23c-2.4,1.6-3.1,4.8-1.5,7.2
			c1,1.5,2.7,2.4,4.4,2.4c1,0,2-0.3,2.8-0.8l34.9-22.7l34.9,22.7c0.9,0.6,1.9,0.8,2.8,0.8c1.7,0,3.4-0.8,4.4-2.4
			C191.3,395.251,190.6,391.951,188.2,390.451z"/>
		<path d="M280.7,118.951c-11.9-4.5-19-9.2-19-9.2l-9.1,28.9l-1.3,3.9l-4.1-11.6c9.4-13.1-0.7-13.7-2.5-13.8l0,0l0,0l0,0l0,0l0,0
			l0,0c-1.8,0-11.9,0.6-2.5,13.8l-4.1,11.6l-1.3-3.9l-9.1-28.9c0,0-7.1,4.6-19,9.2c-13.1,4.7-12.3,15.5-12.5,35.7h46.1h2.5h48.4
			C292.9,134.451,293.7,123.751,280.7,118.951z"/>
		<path d="M224.3,91.451c1.1,6.8,6.3,15.4,14.9,18.5c3.5,1.2,7.4,1.2,10.9,0c8.5-3.1,13.9-11.7,14.9-18.4c1.1-0.1,2.6-1.7,4.3-7.4
			c2.2-7.8-0.1-9-2.1-8.8c0.4-1.1,0.7-2.1,0.9-3.2c3.4-20.2-6.6-20.9-6.6-20.9s-1.7-3.2-6-5.6c-2.9-1.7-7-3.1-12.3-2.6
			c-1.7,0.1-3.4,0.4-4.9,0.9l0,0c-2,0.7-3.8,1.6-5.4,2.8c-2,1.3-3.9,2.8-5.6,4.6c-2.6,2.7-5,6.2-6,10.5c-0.9,3.3-0.7,6.6,0,10.3l0,0
			c0.2,1.1,0.5,2.1,0.9,3.2c-2-0.2-4.3,1-2.1,8.8C221.7,89.751,223.2,91.351,224.3,91.451z"/>
		<path d="M378.4,264.451c-11.9-4.5-19-9.2-19-9.2l-9.1,28.9l-1.3,3.9l-4.1-11.6c9.4-13.1-0.7-13.7-2.5-13.8l0,0l0,0l0,0l0,0l0,0
			l0,0c-1.8,0-11.9,0.6-2.5,13.8l-4.1,11.6l-1.3-3.9l-9.1-28.9c0,0-7.1,4.6-19,9.2c-13.1,4.7-12.3,15.5-12.5,35.7H340h2.5h48.4
			C390.7,279.951,391.5,269.151,378.4,264.451z"/>
		<path d="M322.1,236.951c1.1,6.8,6.3,15.4,14.9,18.5c3.5,1.2,7.4,1.2,10.9,0c8.5-3.1,13.9-11.7,14.9-18.4c1.1-0.1,2.6-1.7,4.3-7.4
			c2.2-7.8-0.1-9-2.1-8.8c0.4-1.1,0.7-2.1,0.9-3.2c3.4-20.2-6.6-20.9-6.6-20.9s-1.7-3.2-6-5.6c-2.9-1.7-7-3.1-12.3-2.6
			c-1.7,0.1-3.4,0.4-4.9,0.9l0,0c-2,0.7-3.8,1.6-5.4,2.8c-2,1.3-3.9,2.8-5.6,4.6c-2.6,2.7-5,6.2-6,10.5c-0.9,3.3-0.7,6.6,0,10.3l0,0
			c0.2,1.1,0.5,2.1,0.9,3.2c-2-0.2-4.3,1-2.1,8.8C319.4,235.251,320.9,236.851,322.1,236.951z"/>
		<path d="M182.9,263.851c-11.9-4.5-19-9.2-19-9.2l-9.1,28.9l-1.3,3.9l-4.1-11.6c9.4-13.1-0.7-13.7-2.5-13.8l0,0l0,0l0,0l0,0l0,0
			l0,0c-1.8,0-11.9,0.6-2.5,13.8l-4.1,11.6l-1.3-3.9l-9.1-28.9c0,0-7.1,4.6-19,9.2c-13.1,4.7-12.3,15.5-12.5,35.7h46.1h2.5h48.4
			C195.1,279.451,195.9,268.651,182.9,263.851z"/>
		<path d="M126.5,236.351c1.1,6.8,6.3,15.4,14.9,18.5c3.5,1.2,7.4,1.2,10.9,0c8.5-3.1,13.9-11.7,14.9-18.4c1.1-0.1,2.6-1.7,4.3-7.4
			c2.2-7.8-0.1-9-2.1-8.8c0.4-1.1,0.7-2.1,0.9-3.2c3.4-20.2-6.6-20.9-6.6-20.9s-1.7-3.2-6-5.6c-2.9-1.7-7-3.1-12.3-2.6
			c-1.7,0.1-3.4,0.4-4.9,0.9l0,0c-2,0.7-3.8,1.6-5.4,2.8c-2,1.3-3.9,2.8-5.6,4.6c-2.6,2.7-5,6.2-6,10.5c-0.9,3.3-0.7,6.6,0,10.3l0,0
			c0.2,1.1,0.5,2.1,0.9,3.2c-2-0.2-4.3,1-2.1,8.8C123.9,234.651,125.4,236.251,126.5,236.351z"/>
		<path d="M475.5,409.351c-11.9-4.5-19-9.2-19-9.2l-9.1,28.9l-1.3,3.9l-4.1-11.6c9.4-13.1-0.7-13.7-2.5-13.8l0,0l0,0l0,0l0,0l0,0
			l0,0c-1.8,0-11.9,0.6-2.5,13.8l-4.1,11.6l-1.3-3.9l-9.1-28.9c0,0-7.1,4.6-19,9.2c-13.1,4.7-12.3,15.5-12.5,35.7h46.1h2.5H488
			C487.8,424.851,488.6,414.151,475.5,409.351z"/>
		<path d="M419.2,381.851c1.1,6.8,6.3,15.4,14.9,18.5c3.5,1.2,7.4,1.2,10.9,0c8.5-3.1,13.9-11.7,14.9-18.4c1.1-0.1,2.6-1.7,4.3-7.4
			c2.2-7.8-0.1-9-2.1-8.8c0.4-1.1,0.7-2.1,0.9-3.2c3.4-20.2-6.6-20.9-6.6-20.9s-1.7-3.2-6-5.6c-2.9-1.7-7-3.1-12.3-2.6
			c-1.7,0.1-3.4,0.4-4.9,0.9l0,0c-2,0.7-3.8,1.6-5.4,2.8c-2,1.3-3.9,2.8-5.6,4.6c-2.6,2.7-5,6.2-6,10.5c-0.9,3.3-0.7,6.6,0,10.3l0,0
			c0.2,1.1,0.5,2.1,0.9,3.2c-2-0.2-4.3,1-2.1,8.8C416.5,380.151,418,381.751,419.2,381.851z"/>
		<path d="M280,408.851c-11.9-4.5-19-9.2-19-9.2l-9.1,28.9l-1.3,3.9l-4.1-11.6c9.4-13.1-0.7-13.7-2.5-13.8l0,0l0,0l0,0l0,0l0,0l0,0
			c-1.8,0-11.9,0.6-2.5,13.8l-4.1,11.6l-1.3-3.9l-9.1-28.9c0,0-7.1,4.6-19,9.2c-13.1,4.7-12.3,15.5-12.5,35.7h46.1h2.5h48.4
			C292.2,424.351,293,413.651,280,408.851z"/>
		<path d="M219.4,373.951c1.6,5.7,3.1,7.3,4.3,7.4c1.1,6.8,6.3,15.4,14.9,18.5c3.5,1.2,7.4,1.2,10.9,0c8.5-3.1,13.9-11.7,14.9-18.4
			c1.1-0.1,2.6-1.7,4.3-7.4c2.2-7.8-0.1-9-2.1-8.8c0.4-1.1,0.7-2.1,0.9-3.2c3.4-20.2-6.6-20.9-6.6-20.9s-1.7-3.2-6-5.6
			c-2.9-1.7-7-3.1-12.3-2.6c-1.7,0.1-3.4,0.4-4.9,0.9l0,0c-2,0.7-3.8,1.6-5.4,2.8c-2,1.3-3.9,2.8-5.6,4.6c-2.6,2.7-5,6.2-6,10.5
			c-0.9,3.3-0.7,6.6,0,10.3l0,0c0.2,1.1,0.5,2.1,0.9,3.2C219.5,364.951,217.1,366.151,219.4,373.951z"/>
		<path d="M84.4,408.851c-11.9-4.5-19-9.2-19-9.2l-9.1,28.9l-1.3,3.9l-4-11.5c9.4-13.1-0.7-13.7-2.5-13.8l0,0l0,0l0,0l0,0l0,0l0,0
			c-1.8,0-11.9,0.6-2.5,13.8l-4.1,11.6l-1.3-3.9l-9.1-28.9c0,0-7.1,4.6-19,9.2c-13.1,4.7-12.3,15.5-12.5,35.7h46h2.5h48.4
			C96.7,424.351,97.5,413.651,84.4,408.851z"/>
		<path d="M28.1,381.351c1.1,6.8,6.3,15.4,14.9,18.5c3.5,1.2,7.4,1.2,10.9,0c8.5-3.1,13.9-11.7,14.9-18.4c1.1-0.1,2.6-1.7,4.3-7.4
			c2.2-7.8-0.1-9-2.1-8.8c0.4-1.1,0.7-2.1,0.9-3.2c3.4-20.2-6.6-20.9-6.6-20.9s-1.7-3.2-6-5.6c-2.9-1.7-7-3.1-12.3-2.6
			c-1.7,0.1-3.4,0.4-4.9,0.9l0,0c-2,0.7-3.8,1.6-5.4,2.8c-2,1.3-3.9,2.8-5.6,4.6c-2.6,2.7-5,6.2-6,10.5c-0.9,3.3-0.7,6.6,0,10.3l0,0
			c0.2,1.1,0.5,2.1,0.9,3.2c-2-0.2-4.3,1-2.1,8.8C25.4,379.651,26.9,381.251,28.1,381.351z"/>
	</g>
</g>
<g>
</g>
<g>
</g>
<g>
</g>
<g>
</g>
<g>
</g>
<g>
</g>
<g>
</g>
<g>
</g>
<g>
</g>
<g>
</g>
<g>
</g>
<g>
</g>
<g>
</g>
<g>
</g>
<g>
</g>
</svg>
