<?xml version="1.0" encoding="iso-8859-1"?>
<!-- Generator: Adobe Illustrator 19.1.0, SVG Export Plug-In . SVG Version: 6.00 Build 0)  -->
<svg version="1.1" id="Capa_1" xmlns="http://www.w3.org/2000/svg" xmlns:xlink="http://www.w3.org/1999/xlink" x="0px" y="0px"
	 viewBox="0 0 488.4 488.4" style="enable-background:new 0 0 488.4 488.4;" xml:space="preserve">
<g>
	<g>
		<path d="M170.1,346.1h-19l0,0h-15.6l0,0h-19c-8.6,0-15.6,7-15.6,15.6v24.9c0,8.6,7,15.6,15.6,15.6h53.6c8.6,0,15.6-7,15.6-15.6
			v-24.9C185.7,353.2,178.7,346.1,170.1,346.1z"/>
		<path d="M69.2,346.1h-19l0,0H34.6l0,0h-19c-8.6,0-15.6,7-15.6,15.6v24.9c0,8.6,7,15.6,15.6,15.6h53.7c8.6,0,15.6-7,15.6-15.6
			v-24.9C84.8,353.2,77.8,346.1,69.2,346.1z"/>
		<path d="M270.9,346.1h-19l0,0h-15.6l0,0h-19c-8.6,0-15.6,7-15.6,15.6v24.9c0,8.6,7,15.6,15.6,15.6H271c8.6,0,15.6-7,15.6-15.6
			v-24.9C286.6,353.2,279.5,346.1,270.9,346.1z"/>
		<path d="M472.7,346.1h-19l0,0h-15.6l0,0h-19c-8.6,0-15.6,7-15.6,15.6v24.9c0,8.6,7,15.6,15.6,15.6h53.7c8.6,0,15.6-7,15.6-15.6
			v-24.9C488.3,353.2,481.3,346.1,472.7,346.1z"/>
		<path d="M371.8,346.1h-19l0,0h-15.6l0,0h-19c-8.6,0-15.6,7-15.6,15.6v24.9c0,8.6,7,15.6,15.6,15.6h53.7c8.6,0,15.6-7,15.6-15.6
			v-24.9C387.4,353.2,380.4,346.1,371.8,346.1z"/>
		<path d="M170.1,217.2h-19l0,0h-15.6l0,0h-19c-8.6,0-15.6,7-15.6,15.6v24.9c0,8.6,7,15.6,15.6,15.6h19v30H42.4
			c-4.3,0-7.8,3.5-7.8,7.8v21.3h15.6v-13.5h85.3v13.5h15.6v-59.1h19c8.6,0,15.6-7,15.6-15.6v-24.9
			C185.7,224.2,178.7,217.2,170.1,217.2z"/>
		<path d="M352.8,217.1h-15.6l0,0h-19c-8.6,0-15.6,7-15.6,15.6v24.9c0,8.6,7,15.6,15.6,15.6h19v30h-93.1c-4.3,0-7.8,3.5-7.8,7.8
			v21.3h15.6v-13.5h85.3v13.5h15.6v-13.5h85.3v13.5h15.6V311c0-4.3-3.5-7.8-7.8-7.8h-93.1v-30h19c8.6,0,15.6-7,15.6-15.6v-24.9
			c0-8.6-7-15.6-15.6-15.6H352.8L352.8,217.1z"/>
		<path d="M151,186.1h85.3v17.4h15.6v-17.4h85.3v17.4h15.6v-25.2c0-4.3-3.5-7.8-7.8-7.8h-93.1v-28.2h19c8.6,0,15.6-7,15.6-15.6
			v-24.9c0-8.6-7-15.6-15.6-15.6h-53.7c-8.6,0-15.6,7-15.6,15.6v24.9c0,8.6,7,15.6,15.6,15.6h19v28.2h-93.1c-4.3,0-7.8,3.5-7.8,7.8
			v25.2h15.6v-17.4H151z"/>
		<path d="M236.3,217.1L236.3,217.1h-19c-8.6,0-15.6,7-15.6,15.6v24.9c0,8.6,7,15.6,15.6,15.6H271c8.6,0,15.6-7,15.6-15.6v-24.9
			c0-8.6-7-15.6-15.6-15.6h-19l0,0H236.3z"/>
	</g>
</g>
<g>
</g>
<g>
</g>
<g>
</g>
<g>
</g>
<g>
</g>
<g>
</g>
<g>
</g>
<g>
</g>
<g>
</g>
<g>
</g>
<g>
</g>
<g>
</g>
<g>
</g>
<g>
</g>
<g>
</g>
</svg>
