<?xml version="1.0" encoding="iso-8859-1"?>
<!-- Generator: Adobe Illustrator 19.1.0, SVG Export Plug-In . SVG Version: 6.00 Build 0)  -->
<svg version="1.1" id="Capa_1" xmlns="http://www.w3.org/2000/svg" xmlns:xlink="http://www.w3.org/1999/xlink" x="0px" y="0px"
	 viewBox="0 0 490.2 490.2" style="enable-background:new 0 0 490.2 490.2;" xml:space="preserve">
<g>
	<g>
		<path d="M245.1,174.107c-3,0-5.3,2.4-5.3,5.3v43.2l-36.3,23.5c-2.5,1.6-3.2,4.9-1.6,7.4c1,1.6,2.7,2.4,4.5,2.4c1,0,2-0.3,2.9-0.9
			l35.8-23.2l35.8,23.2c0.9,0.6,1.9,0.9,2.9,0.9c1.7,0,3.5-0.9,4.5-2.4c1.6-2.5,0.9-5.8-1.6-7.4l-36.3-23.5v-43.2
			C250.4,176.507,248,174.107,245.1,174.107z"/>
		<path d="M244.9,95.407L244.9,95.407h0.1h0.1l0,0c25.2-0.3,21.5-33.9,21.5-33.9c-1-22.4-19.8-22.3-21.7-22.2
			c-1.8-0.1-20.6-0.3-21.7,22.2C223.4,61.507,219.8,95.107,244.9,95.407z"/>
		<path d="M282.1,112.507c-9.8-6.2-20.8-11.5-20.8-11.5l-8.7,27.6l-5.1-14.5c9-12.5-0.6-13.1-2.3-13.1l0,0c0,0,0,0-0.1,0l0,0l0,0
			l0,0l0,0c0,0,0,0-0.1,0l0,0c-1.7,0-11.3,0.6-2.3,13.1l-5.1,14.5l-8.7-27.6c0,0-11,5.3-20.8,11.5c-7.4,4.6-8.8,9.7-9,16.9v4.5v20
			h46h0.1l0,0h0.1h46v-20v-4.5C290.9,122.207,289.5,117.207,282.1,112.507z"/>
		<path d="M145.4,243.907L145.4,243.907h0.1h0.1l0,0c25.2-0.3,21.5-33.9,21.5-33.9c-1-22.4-19.8-22.3-21.7-22.2
			c-1.8-0.1-20.6-0.3-21.7,22.2C123.9,210.007,120.2,243.607,145.4,243.907z"/>
		<path d="M182.5,261.007c-9.8-6.2-20.8-11.5-20.8-11.5l-8.7,27.6l-5.1-14.5c9-12.5-0.6-13.1-2.3-13.1l0,0c0,0,0,0-0.1,0l0,0l0,0
			l0,0l0,0l0,0c0,0,0,0-0.1,0l0,0c-1.7,0-11.3,0.6-2.3,13.1l-5.1,14.5l-8.7-27.6c0,0-11,5.3-20.8,11.5c-7.4,4.6-8.8,9.7-9,16.9v4.5
			v20h46h0.1l0,0h0.1h46v-20v-4.5C191.3,270.707,189.9,265.707,182.5,261.007z"/>
		<path d="M344.3,243.907L344.3,243.907h0.1h0.1l0,0c25.2-0.3,21.5-33.9,21.5-33.9c-1-22.4-19.8-22.3-21.7-22.2
			c-1.8-0.1-20.6-0.3-21.7,22.2C322.8,210.007,319.2,243.607,344.3,243.907z"/>
		<path d="M381.5,261.007c-9.8-6.2-20.8-11.5-20.8-11.5l-8.7,27.6l-5.1-14.5c9-12.5-0.6-13.1-2.3-13.1l0,0c0,0,0,0-0.1,0l0,0l0,0
			l0,0l0,0l0,0c0,0,0,0-0.1,0l0,0c-1.7,0-11.3,0.6-2.3,13.1l-5.1,14.5l-8.7-27.6c0,0-11,5.3-20.8,11.5c-7.4,4.6-8.8,9.7-9,16.9v4.5
			v20h46h0.1l0,0h0.1h46v-20v-4.5C390.3,270.707,388.9,265.707,381.5,261.007z"/>
		<path d="M386.2,394.707l-36.3-23.5v-43.2c0-3-2.4-5.3-5.3-5.3c-3,0-5.3,2.4-5.3,5.3v43.2l-36.3,23.5c-2.5,1.6-3.2,4.9-1.6,7.4
			c1,1.6,2.7,2.4,4.5,2.4c1,0,2-0.3,2.9-0.9l35.8-23.2l35.8,23.2c0.9,0.6,1.9,0.9,2.9,0.9c1.7,0,3.5-0.9,4.5-2.4
			C389.4,399.707,388.7,396.307,386.2,394.707z"/>
		<path d="M245,392.407h0.1l0,0c25.2-0.3,21.5-33.9,21.5-33.9c-1-22.4-19.8-22.3-21.7-22.2c-1.8-0.1-20.6-0.3-21.7,22.2
			c0,0-3.7,33.6,21.5,33.9l0,0C244.9,392.407,244.9,392.407,245,392.407z"/>
		<path d="M282,409.507c-9.8-6.2-20.8-11.5-20.8-11.5l-8.7,27.6l-5.1-14.5c9-12.5-0.6-13.1-2.3-13.1l0,0c0,0,0,0-0.1,0l0,0l0,0l0,0
			l0,0l0,0c0,0,0,0-0.1,0l0,0c-1.7,0-11.3,0.6-2.3,13.1l-5.1,14.5l-8.7-27.6c0,0-11,5.3-20.8,11.5c-7.4,4.6-8.8,9.7-9,16.9v4.5v20
			h46h0.1l0,0h0.1h46v-20v-4.5C290.8,419.207,289.4,414.207,282,409.507z"/>
		<path d="M443.8,392.407L443.8,392.407h0.1h0.1l0,0c25.2-0.3,21.5-33.9,21.5-33.9c-1-22.4-19.8-22.3-21.7-22.2
			c-1.8-0.1-20.6-0.3-21.7,22.2C422.3,358.507,418.7,392.107,443.8,392.407z"/>
		<path d="M490,426.407c-0.2-7.2-1.6-12.3-9-16.9c-9.8-6.2-20.8-11.5-20.8-11.5l-8.7,27.6l-5.1-14.5c9-12.5-0.6-13.1-2.3-13.1l0,0
			c0,0,0,0-0.1,0l0,0l0,0l0,0l0,0c0,0,0,0-0.1,0l0,0c-1.7,0-11.3,0.6-2.3,13.1l-5.1,14.5l-8.7-27.6c0,0-11,5.3-20.8,11.5
			c-7.4,4.6-8.8,9.7-9,16.9v4.5v20h46h0.1l0,0h0.1h46v-20L490,426.407z"/>
		<path d="M187.2,394.707l-36.3-23.5v-43.2c0-3-2.4-5.3-5.3-5.3c-3,0-5.3,2.4-5.3,5.3v43.2l-36.3,23.5c-2.5,1.6-3.2,4.9-1.6,7.4
			c1,1.6,2.7,2.4,4.5,2.4c1,0,2-0.3,2.9-0.9l35.8-23.2l35.8,23.2c0.9,0.6,1.9,0.9,2.9,0.9c1.7,0,3.5-0.9,4.5-2.4
			C190.4,399.707,189.7,396.307,187.2,394.707z"/>
		<path d="M45.9,392.407L45.9,392.407H46h0.1l0,0c25.2-0.3,21.5-33.9,21.5-33.9c-1-22.4-19.8-22.3-21.7-22.2
			c-1.8-0.1-20.6-0.3-21.7,22.2C24.4,358.507,20.7,392.107,45.9,392.407z"/>
		<path d="M83,409.507c-9.8-6.2-20.8-11.5-20.8-11.5l-8.7,27.6l-5.1-14.5c9-12.5-0.6-13.1-2.3-13.1l0,0c0,0,0,0-0.1,0l0,0l0,0l0,0
			l0,0l0,0c0,0,0,0-0.1,0l0,0c-1.7,0-11.3,0.6-2.3,13.1l-5.1,14.5l-8.7-27.6c0,0-11,5.3-20.8,11.5c-7.4,4.6-8.8,9.7-9,16.9v4.5v20
			h46h0l0,0h0.1h46v-20v-4.5C91.8,419.207,90.4,414.207,83,409.507z"/>
	</g>
</g>
<g>
</g>
<g>
</g>
<g>
</g>
<g>
</g>
<g>
</g>
<g>
</g>
<g>
</g>
<g>
</g>
<g>
</g>
<g>
</g>
<g>
</g>
<g>
</g>
<g>
</g>
<g>
</g>
<g>
</g>
</svg>
