<?xml version="1.0" encoding="iso-8859-1"?>
<!-- Generator: Adobe Illustrator 19.1.0, SVG Export Plug-In . SVG Version: 6.00 Build 0)  -->
<svg version="1.1" id="Capa_1" xmlns="http://www.w3.org/2000/svg" xmlns:xlink="http://www.w3.org/1999/xlink" x="0px" y="0px"
	 viewBox="0 0 490.6 490.6" style="enable-background:new 0 0 490.6 490.6;" xml:space="preserve">
<g>
	<g>
		<path d="M288.65,174.5c3.7,9.8,5.7,20.3,5.7,31.4c0,48.9-39.6,88.5-88.5,88.5s-88.5-39.6-88.5-88.5s39.6-88.5,88.5-88.5
			c11.4,0,22.3,2.2,32.3,6.1l29.4-29.4c-18.3-10.1-39.3-15.9-61.7-15.9c-70.5,0-127.7,57.2-127.7,127.7
			c0,64.2,47.4,117.4,109.2,126.3v10.3h-6.7v122.9c0,13.9,11.3,25.2,25.2,25.2s25.2-11.3,25.2-25.2V342.5h-6.7v-10.3
			c61.7-9,109.2-62.1,109.2-126.3c0-22-5.6-42.8-15.4-60.9L288.65,174.5z"/>
		<path d="M373.35,39.1L368.15,0l-51.8,51.8l2.2,16.6l-105.6,105.5c-10.6-2.2-22.1,0.7-30.3,9c-13,13-13,34,0,46.9
			c13,13,34,13,46.9,0c8.2-8.2,11.2-19.7,9-30.3l105.6-105.6l16.6,2.2l51.7-51.8L373.35,39.1z"/>
	</g>
</g>
<g>
</g>
<g>
</g>
<g>
</g>
<g>
</g>
<g>
</g>
<g>
</g>
<g>
</g>
<g>
</g>
<g>
</g>
<g>
</g>
<g>
</g>
<g>
</g>
<g>
</g>
<g>
</g>
<g>
</g>
</svg>
