<?xml version="1.0" encoding="iso-8859-1"?>
<!-- Generator: Adobe Illustrator 19.1.0, SVG Export Plug-In . SVG Version: 6.00 Build 0)  -->
<svg version="1.1" id="Capa_1" xmlns="http://www.w3.org/2000/svg" xmlns:xlink="http://www.w3.org/1999/xlink" x="0px" y="0px"
	 viewBox="0 0 486.2 486.2" style="enable-background:new 0 0 486.2 486.2;" xml:space="preserve">
<g>
	<g>
		<polygon points="410.7,0 321.8,0 260.7,109.4 305.1,188.8 		"/>
		<path d="M243.1,209.7c14.5,0,28.5,2.1,41.8,5.8L164.4,0H75.5l121.3,216.9C211.4,212.2,227,209.7,243.1,209.7z"/>
		<path d="M243.1,240.7c-67.7,0-122.8,55.1-122.8,122.8s55.1,122.7,122.8,122.7s122.8-55.1,122.8-122.8S310.8,240.7,243.1,240.7z
			 M206.9,279.4c-7.5,10.4-14.7,23.6-19.6,39.7h-24.2C172.9,301.5,188.3,287.5,206.9,279.4z M155.4,389.4c-2.4-8.2-3.8-16.9-3.8-26
			c0-9,1.3-17.7,3.8-26h27.5c-1.4,8.1-2.1,16.7-2.1,26s0.8,17.9,2.1,26H155.4z M163.1,407.8h24.1c4.9,16.1,12.2,29.3,19.6,39.7
			C188.3,439.4,172.9,425.4,163.1,407.8z M233.9,450.9c-8.9-9-20-23.2-27.2-43.2h27.2V450.9z M233.9,389.4h-32.3
			c-1.6-8-2.5-16.6-2.5-26s0.9-18,2.4-26h32.3v52H233.9z M233.9,319.1h-27.3c7.2-20.2,18.4-34.4,27.3-43.3V319.1z M323.1,319.1H299
			c-4.9-16.1-12.2-29.3-19.6-39.7C297.9,287.5,313.3,301.5,323.1,319.1z M252.3,275.9c8.9,9,20,23.2,27.2,43.2h-27.2V275.9z
			 M252.3,337.5h32.3c1.6,8,2.5,16.6,2.5,26s-0.9,18-2.4,26h-32.3v-52H252.3z M252.3,407.8h27.3c-7.2,20.2-18.4,34.4-27.3,43.3
			V407.8z M279.3,447.5c7.5-10.4,14.7-23.6,19.6-39.7h24.2C313.3,425.4,297.9,439.4,279.3,447.5z M334.6,363.4c0,9-1.3,17.7-3.8,26
			h-27.5c1.4-8.1,2.1-16.7,2.1-26s-0.8-17.9-2.1-26h27.5C333.3,345.7,334.6,354.4,334.6,363.4z"/>
	</g>
</g>
<g>
</g>
<g>
</g>
<g>
</g>
<g>
</g>
<g>
</g>
<g>
</g>
<g>
</g>
<g>
</g>
<g>
</g>
<g>
</g>
<g>
</g>
<g>
</g>
<g>
</g>
<g>
</g>
<g>
</g>
</svg>
