<?xml version="1.0" encoding="iso-8859-1"?>
<!-- Generator: Adobe Illustrator 19.1.0, SVG Export Plug-In . SVG Version: 6.00 Build 0)  -->
<svg version="1.1" id="Capa_1" xmlns="http://www.w3.org/2000/svg" xmlns:xlink="http://www.w3.org/1999/xlink" x="0px" y="0px"
	 viewBox="0 0 486.592 486.592" style="enable-background:new 0 0 486.592 486.592;" xml:space="preserve">
<g>
	<path d="M233.346,476.168c0,5.5,4.4,9.9,9.8,10c0.1,0,0.1,0,0.2,0c5.5,0,10-4.5,10-10s-4.5-10-10-10
		S233.446,470.668,233.346,476.168z"/>
	<g>
		<path d="M354.846,164.968c3.3-4.5,2.3-10.7-2.2-14s-10.7-2.3-14,2.2s-2.3,10.7,2.2,14c1.7,1.3,3.7,1.9,5.7,1.9
			C349.746,169.168,352.846,167.768,354.846,164.968z"/>
		<path d="M68.046,292.468c0.3,0,0.6,0.1,0.9,0.1c5.1,0.1,9.6-3.7,10.1-8.9v-0.1c0-0.1,0-0.1,0-0.2c0.6-5.5-3.4-10.4-8.9-11
			s-10.4,3.4-11,8.9l0,0c0,0.1,0,0.1,0,0.2v0.1C58.546,286.968,62.546,291.868,68.046,292.468z"/>
		<path d="M148.746,152.968c-3.2-4.5-9.5-5.5-14-2.2c-4.5,3.2-5.5,9.5-2.2,14c1.9,2.7,4.9,4.1,8,4.1c2.1,0,4.2-0.6,6-1.9
			C151.046,163.668,152.046,157.368,148.746,152.968z"/>
		<path d="M86.746,221.468c1.5,0.9,3.2,1.3,4.8,1.4c3.5,0.1,6.9-1.7,8.8-5c2.8-4.8,1.1-10.9-3.6-13.7c-4.8-2.8-10.9-1.2-13.7,3.6
			C80.346,212.568,81.946,218.768,86.746,221.468z"/>
		<path d="M310.646,451.968L310.646,451.968c-5.1,2.2-7.3,8.1-5.1,13.2c1.6,3.7,5.2,5.9,9,5.9c1.4,0,2.8-0.3,4.2-0.9
			c5-2.2,7.3-8.1,5.1-13.2C321.546,451.968,315.646,449.768,310.646,451.968z"/>
		<path d="M176.146,451.868c-5-2.2-11,0-13.2,5.1s0,11,5.1,13.2c1.3,0.6,2.6,0.8,3.9,0.9c3.9,0.1,7.6-2.2,9.3-5.9
			C183.446,460.068,181.146,454.168,176.146,451.868z"/>
		<path d="M417.746,292.768c0.4,0,0.8,0,1.2-0.1c5.5-0.6,9.5-5.5,8.9-11s-5.5-9.5-11-8.9s-9.5,5.5-8.9,11
			C408.546,288.868,412.746,292.668,417.746,292.768z"/>
		<path d="M395.346,223.368c1.8,0,3.5-0.4,5.2-1.4c4.8-2.7,6.4-8.9,3.7-13.7c-2.8-4.8-8.9-6.4-13.7-3.7c-4.8,2.7-6.4,8.9-3.7,13.7
			C388.646,221.568,391.946,223.368,395.346,223.368z"/>
		<path d="M262.046,103.468L262.046,103.468v-6.8c0,0,21.5,0.7,31.7-9.8c0,0-14.8-4.2-12.2-31.2c2.7-27-3.3-50.8-25-48.7
			c0,0-9.4-11.3-28.2-4.2c-6.4,2.4-23.7,8.6-22.8,46.1c0.9,37.4-13.3,37.7-13.3,37.7s7.3,10.6,32.1,10.4v7l18.9,55.1l18.8-55
			L262.046,103.468z"/>
		<path d="M176.246,162.668h66.1h1.7h66.1c1.6,0,2.8-1.4,2.5-3l-3.8-20.9c-1.2-6.8-5.6-12.6-11.8-15.7l-23.7-11.7
			c-1.4-0.7-2.7-1.4-4-2.2l7.5,22.1l-10.5-0.8l-23.1,28.4l-23.1-28.4l-10.5,0.8l7.6-22.1l-4.8,2.4l-23.2,11.4
			c-6.2,3.1-10.6,8.9-11.8,15.7l-3.8,20.9C173.546,161.268,174.746,162.668,176.246,162.668z"/>
		<path d="M435.846,417.068L435.846,417.068v-6.8c0,0,21.5,0.7,31.7-9.8c0,0-14.8-4.2-12.2-31.2c2.7-27-3.3-50.8-25-48.7
			c0,0-9.4-11.3-28.2-4.2c-6.4,2.4-23.7,8.6-22.8,46.1c0.9,37.4-13.3,37.7-13.3,37.7s7.3,10.6,32.1,10.4v7l18.9,55.1l18.8-55
			V417.068z"/>
		<path d="M486.546,473.368l-3.8-20.9c-1.2-6.8-5.6-12.6-11.8-15.7l-23.7-11.7c-1.4-0.7-2.7-1.4-4-2.2l7.5,22.1l-10.5-0.8
			l-23.1,28.4l-23.1-28.4l-10.5,0.8l7.6-22.1l-4.8,2.4l-23.2,11.4c-6.2,3.1-10.6,8.9-11.8,15.7l-3.8,20.9c-0.3,1.5,0.9,3,2.5,3h66.1
			h1.7h66.1C485.646,476.368,486.846,474.868,486.546,473.368z"/>
		<path d="M88.446,417.068L88.446,417.068v-6.8c0,0,21.5,0.7,31.7-9.8c0,0-14.8-4.2-12.2-31.2c2.7-27-3.3-50.8-25-48.7
			c0,0-9.4-11.3-28.2-4.2c-6.4,2.4-23.7,8.6-22.8,46.1c0.9,37.4-13.3,37.7-13.3,37.7s7.3,10.6,32.1,10.4v7l18.9,55.1l18.8-55
			L88.446,417.068z"/>
		<path d="M135.246,452.368c-1.2-6.8-5.6-12.6-11.8-15.7l-23.7-11.7c-1.4-0.7-2.7-1.4-4-2.2l7.5,22.1l-10.5-0.8l-23.1,28.4
			l-23.1-28.4l-10.5,0.8l7.6-22.1l-4.8,2.4l-23.2,11.4c-6.2,3.1-10.6,8.9-11.8,15.7l-3.8,20.9c-0.3,1.5,0.9,3,2.5,3h66.1h1.7h66.1
			c1.6,0,2.8-1.4,2.5-3L135.246,452.368z"/>
		<path d="M331.246,292.368h-12.4c-2-10.5-6.1-20.3-11.9-28.8l8.7-8.7c3.2-3.2,3.2-8.3,0-11.5l-8.8-8.8c-3.2-3.2-8.3-3.2-11.5,0
			l-8.7,8.7c-8.5-5.9-18.3-10-28.9-12.1v-12.2c0-4.5-3.6-8.1-8.1-8.1h-12.5c-4.5,0-8.1,3.6-8.1,8.1v12.1c-10.6,2-20.5,6.1-29.1,11.9
			l-8.5-8.5c-3.2-3.2-8.3-3.2-11.5,0l-8.8,8.8c-3.2,3.2-3.2,8.3,0,11.5l8.4,8.4c-5.9,8.6-10.1,18.5-12.1,29.1h-11.9
			c-4.5,0-8.1,3.6-8.1,8.1v12.5c0,4.5,3.6,8.1,8.1,8.1h11.9c2,10.6,6.2,20.5,12.1,29.1l-8.4,8.4c-3.2,3.2-3.2,8.3,0,11.5l8.8,8.8
			c3.2,3.2,8.3,3.2,11.5,0l8.5-8.5c8.6,5.8,18.5,10,29.1,11.9v12.1c0,4.5,3.6,8.1,8.1,8.1h12.5c4.5,0,8.1-3.6,8.1-8.1v-12
			c10.5-2,20.3-6.2,28.9-12.1l8.7,8.7c3.2,3.2,8.3,3.2,11.5,0l8.8-8.8c3.2-3.2,3.2-8.3,0-11.5l-8.7-8.7c5.8-8.5,9.9-18.3,11.9-28.8
			h12.4c4.5,0,8.1-3.6,8.1-8.1v-12.5C339.346,295.968,335.746,292.368,331.246,292.368z M243.546,254.968c5.6,0,11.1,0.9,16.1,2.6
			l-7.9,13.8c-2.9-0.8-6-1.2-9.2-1.2c-16.8,0-30.9,11.4-35.1,26.8h-14.8C197.246,273.068,218.246,254.968,243.546,254.968z
			 M260.046,306.568c0,9.6-7.8,17.4-17.4,17.4s-17.4-7.8-17.4-17.4s7.8-17.4,17.4-17.4
			C252.246,289.168,260.046,296.968,260.046,306.568z M243.546,358.368c-25.3,0-46.4-18.2-50.9-42.3h14.8
			c4.2,15.4,18.4,26.8,35.1,26.8c3.2,0,6.4-0.4,9.4-1.2l8.1,14C254.846,357.468,249.346,358.368,243.546,358.368z M276.746,346.268
			l-8.3-14.2c6.5-6.6,10.5-15.6,10.5-25.5c0-10-4.1-19.1-10.6-25.7l8.1-14.1c11.5,9.5,18.8,23.8,18.8,39.9
			C295.246,322.568,288.046,336.868,276.746,346.268z"/>
	</g>
</g>
<g>
</g>
<g>
</g>
<g>
</g>
<g>
</g>
<g>
</g>
<g>
</g>
<g>
</g>
<g>
</g>
<g>
</g>
<g>
</g>
<g>
</g>
<g>
</g>
<g>
</g>
<g>
</g>
<g>
</g>
</svg>
