<?xml version="1.0" encoding="iso-8859-1"?>
<!-- Generator: Adobe Illustrator 19.1.0, SVG Export Plug-In . SVG Version: 6.00 Build 0)  -->
<svg version="1.1" id="Capa_1" xmlns="http://www.w3.org/2000/svg" xmlns:xlink="http://www.w3.org/1999/xlink" x="0px" y="0px"
	 viewBox="0 0 488.7 488.7" style="enable-background:new 0 0 488.7 488.7;" xml:space="preserve">
<g>
	<g>
		<path d="M241,277.85l17.7-24l-7.1-7.1l-9.7-9.7l-7.1-7.1l-24,17.7c-13.3-9.1-28.5-15.6-44.9-18.7l-4.4-29.4h-10.1h-13.7h-10.1
			l-4.4,29.4c-16.4,3-31.7,9.5-44.9,18.7l-24-17.7l-7.1,7.1l-9.7,9.7l-7.1,7.1l17.7,24c-9.1,13.2-15.5,28.4-18.5,44.9L0,327.25v10.1
			v13.7v10.1l29.7,4.5c3.1,16.3,9.5,31.5,18.6,44.6l-17.9,24.1l7.1,7.1l9.7,9.7l7.1,7.1l24.3-17.9c13.2,9,28.3,15.4,44.6,18.4
			l4.5,29.9h10.1h13.7h10.1l4.5-29.9c16.3-3,31.4-9.4,44.6-18.4l24.3,17.9l7.1-7.1l9.7-9.7l7.1-7.1l-17.9-24.2
			c9.1-13.2,15.5-28.3,18.6-44.6l29.7-4.5v-10.1v-13.7v-10.1l-29.6-4.5C256.5,306.35,250.1,291.15,241,277.85z M144.6,436.45
			c-51,0-92.4-41.4-92.4-92.4s41.4-92.4,92.4-92.4s92.4,41.4,92.4,92.4C236.9,395.05,195.6,436.45,144.6,436.45z"/>
		<path d="M195.5,371.55c-15.8-4-28.6-13-28.6-13l-10,31.6l-1.9,5.9v-0.1l-1.6,5l-5.3-14.9c13.3-18.6-3.5-17.9-3.5-17.9
			s-16.9-0.7-3.5,17.9l-5.3,15.1l-1.6-5.1l-11.9-37.5c0,0-12.8,9-28.6,13c-7.9,2-10.7,8.7-11.6,15c14.1,19.5,36.9,31.6,62.3,31.6
			c5.8,0,11.6-0.7,17.4-2c18.4-4.2,34.3-14.8,45.3-30C206.1,379.95,203.2,373.45,195.5,371.55z"/>
		<path d="M118.1,337.55c1.4,8.8,8.1,20,19.3,24c4.6,1.6,9.6,1.6,14.2,0c11-4,18-15.1,19.4-23.9c1.5-0.1,3.4-2.2,5.5-9.6
			c2.9-10.1-0.2-11.6-2.8-11.4c0.5-1.4,0.9-2.8,1.1-4.2c4.4-26.2-8.6-27.2-8.6-27.2s-2.1-4.1-7.8-7.2c-3.8-2.2-9-4-16-3.4
			c-2.2,0.1-4.4,0.5-6.4,1.2l0,0c-2.6,0.9-4.9,2.1-7,3.6c-2.6,1.6-5,3.7-7.2,6c-3.4,3.5-6.5,8-7.8,13.7c-1.1,4.2-0.9,8.6,0.1,13.3
			l0,0c0.3,1.4,0.6,2.8,1.1,4.2c-2.6-0.2-5.6,1.3-2.8,11.4C114.7,335.35,116.6,337.45,118.1,337.55z"/>
		<path d="M462.9,164.15c3.5-16.3,3.3-32.8,0-48.5l25.5-15.5l-3.9-9.3l-5.2-12.6l-3.9-9.3l-28.9,7.2c-8.8-13.5-20.4-25.3-34.4-34.4
			l7.1-28.9l-9.3-3.8l-12.7-5.2l-9.3-3.8l-15.3,25.5c-16.4-3.5-32.9-3.3-48.6,0.1l-15.4-25.5l-9.3,3.9l-12.7,5.3l-9.3,3.9l7.2,29
			c-13.4,8.8-25.2,20.4-34.2,34.4l-29-7.2l-3.8,9.3l-5.2,12.7l-3.8,9.3l25.7,15.4c-3.4,16.3-3.2,32.7,0.2,48.3l-25.8,15.6l3.9,9.3
			l5.3,12.6l3.9,9.3l29.3-7.3c8.7,13.4,20.3,25,34.2,34l-7.2,29.3l9.3,3.8l12.7,5.2l9.3,3.8l15.5-25.9c16.2,3.4,32.6,3.2,48.2-0.1
			l15.6,25.8l9.3-3.9l12.6-5.3l9.3-3.9l-7.3-29.2c13.4-8.7,25.1-20.3,34.2-34.2l29.2,7.2l3.8-9.3l5.2-12.7l3.8-9.3L462.9,164.15z
			 M433.9,175.35c-19.4,47.2-73.4,69.7-120.6,50.2c-47.2-19.4-69.7-73.4-50.2-120.6c19.4-47.2,73.4-69.7,120.6-50.2
			C430.8,74.15,453.3,128.15,433.9,175.35z"/>
		<path d="M399.4,167.55c-15.8-4-28.6-13-28.6-13l-10,31.6l-1.9,5.9v-0.1l-1.6,5l-5.3-14.9c13.3-18.6-3.5-17.9-3.5-17.9
			s-16.9-0.7-3.5,17.9l-5.3,15.1l-1.6-5.1l-11.9-37.5c0,0-12.8,9-28.6,13c-7.9,2-10.7,8.7-11.6,15c14.1,19.5,36.9,31.6,62.3,31.6
			c5.8,0,11.6-0.7,17.4-2c18.4-4.2,34.3-14.8,45.3-30C410,176.05,407.1,169.55,399.4,167.55z"/>
		<path d="M322.1,133.55c1.4,8.8,8.1,20,19.3,24c4.6,1.6,9.6,1.6,14.2,0c11-4,18-15.1,19.4-23.9c1.5-0.1,3.4-2.2,5.5-9.6
			c2.9-10.1-0.2-11.6-2.8-11.4c0.5-1.4,0.9-2.8,1.1-4.2c4.4-26.2-8.6-27.2-8.6-27.2s-2.1-4.1-7.8-7.2c-3.8-2.2-9-4-16-3.4
			c-2.2,0.1-4.4,0.5-6.4,1.2l0,0c-2.6,0.9-4.9,2.1-7,3.6c-2.6,1.6-5,3.7-7.2,6c-3.4,3.5-6.5,8-7.8,13.7c-1.1,4.2-0.9,8.6,0.1,13.3
			l0,0c0.3,1.4,0.6,2.8,1.1,4.2c-2.6-0.2-5.6,1.3-2.8,11.4C318.6,131.35,320.6,133.45,322.1,133.55z"/>
	</g>
</g>
<g>
</g>
<g>
</g>
<g>
</g>
<g>
</g>
<g>
</g>
<g>
</g>
<g>
</g>
<g>
</g>
<g>
</g>
<g>
</g>
<g>
</g>
<g>
</g>
<g>
</g>
<g>
</g>
<g>
</g>
</svg>
