<?xml version="1.0" encoding="iso-8859-1"?>
<!-- Generator: Adobe Illustrator 19.0.0, SVG Export Plug-In . SVG Version: 6.00 Build 0)  -->
<svg xmlns="http://www.w3.org/2000/svg" xmlns:xlink="http://www.w3.org/1999/xlink" version="1.1" id="Capa_1" x="0px" y="0px" viewBox="0 0 512 512" style="enable-background:new 0 0 512 512;" xml:space="preserve" width="512px" height="512px">
<g>
	<g>
		<path d="M482,424.58V87.42c17.459-6.192,30-22.865,30-42.42c0-24.813-20.187-45-45-45c-19.555,0-36.228,12.541-42.42,30H87.42    C81.228,12.541,64.555,0,45,0C20.187,0,0,20.187,0,45c0,19.555,12.541,36.228,30,42.42v337.16C12.541,430.772,0,447.445,0,467    c0,24.813,20.187,45,45,45c19.555,0,36.228-12.541,42.42-30h337.16c6.192,17.459,22.865,30,42.42,30c24.813,0,45-20.187,45-45    C512,447.445,499.459,430.772,482,424.58z M467,30c8.271,0,15,6.729,15,15s-6.729,15-15,15s-15-6.729-15-15S458.729,30,467,30z     M45,30c8.271,0,15,6.729,15,15s-6.729,15-15,15s-15-6.729-15-15S36.729,30,45,30z M45,482c-8.271,0-15-6.729-15-15    s6.729-15,15-15s15,6.729,15,15S53.271,482,45,482z M424.58,452H87.42c-4.527-12.764-14.656-22.893-27.42-27.42V87.42    C72.764,82.893,82.893,72.764,87.42,60h337.16c4.527,12.764,14.656,22.893,27.42,27.42v337.16    C439.236,429.107,429.107,439.236,424.58,452z M467,482c-8.271,0-15-6.729-15-15s6.729-15,15-15s15,6.729,15,15    S475.271,482,467,482z" fill="#FFDA44"/>
	</g>
</g>
<g>
	<g>
		<path d="M407,90H105c-8.284,0-15,6.716-15,15v302c0,8.284,6.716,15,15,15h302c8.284,0,15-6.716,15-15V105    C422,96.716,415.284,90,407,90z M120,392v-81.566l43.437-34.129L271.47,392H120z M392,392h-79.483l-42.987-46.035l45.976-39.716    L392,379.14V392z M392,337.701l-65.652-62.56c-5.589-5.327-14.31-5.54-20.153-0.492l-57.154,49.373l-73.076-78.259    c-5.316-5.693-14.105-6.371-20.231-1.557L120,272.281V120h272V337.701z" fill="#FFDA44"/>
	</g>
</g>
<g>
	<g>
		<path d="M316,151c-24.813,0-45,20.187-45,45s20.187,45,45,45s45-20.187,45-45S340.813,151,316,151z M316,211    c-8.271,0-15-6.729-15-15s6.729-15,15-15s15,6.729,15,15S324.271,211,316,211z" fill="#FFDA44"/>
	</g>
</g>
<g>
</g>
<g>
</g>
<g>
</g>
<g>
</g>
<g>
</g>
<g>
</g>
<g>
</g>
<g>
</g>
<g>
</g>
<g>
</g>
<g>
</g>
<g>
</g>
<g>
</g>
<g>
</g>
<g>
</g>
</svg>
